<?xml version="1.0" encoding="UTF-8"?>
<svg width="72px" height="72px" viewBox="0 0 72 72" version="1.1" xmlns="http://www.w3.org/2000/svg" xmlns:xlink="http://www.w3.org/1999/xlink">
    <!-- Generator: Sketch 51.3 (57544) - http://www.bohemiancoding.com/sketch -->
    <title>SVG (real size)</title>
    <desc>Created with Sketch.</desc>
    <defs></defs>
    <g id="SVG-(real-size)" stroke="none" stroke-width="1" fill="none" fill-rule="evenodd">
        <circle id="Oval" stroke="#485668" stroke-width="2" fill="#FFFFFF" fill-rule="nonzero" cx="36" cy="36" r="35"></circle>
        <path d="M27.6797419,35.0257867 C26.775164,35.0257867 25.9562519,35.3923862 25.3635169,35.9851236 C24.7707937,36.5778254 24.4041528,37.3967362 24.4041528,38.3012995 C24.4041528,39.205851 24.7707819,40.0247618 25.3635169,40.6174873 C25.95624,41.2102009 26.775164,41.5768241 27.6797419,41.5768241 C28.5843079,41.5768241 29.4032318,41.2101891 29.995955,40.6174873 C30.58869,40.0247499 30.9553072,39.205851 30.9553072,38.3012995 C30.9553072,37.396748 30.5886663,36.5778254 29.995955,35.9851236 C29.40322,35.3923981 28.584296,35.0257867 27.6797419,35.0257867 Z M54.6068979,38.4034232 L50.6948278,37.8941683 L50.7265018,37.433402 C50.7394869,37.2443451 50.7487128,37.0715577 50.754061,36.915538 C50.7588755,36.7749341 50.7613184,36.6016606 50.7613184,36.3949822 C50.7613184,35.9121357 50.7400561,35.4475748 50.6986225,35.0016551 C50.6558608,34.5414817 50.5909711,34.0824705 50.5051511,33.625902 L50.421442,33.180599 L58.4147555,30.9990148 L58.6167413,31.2090491 C58.8536859,31.4554291 59.1395942,31.6544589 59.4588249,31.7903906 C59.7639439,31.9203102 60.1018281,31.9922308 60.4588043,31.9922308 C61.1640883,31.9922308 61.802609,31.7063864 62.2647346,31.2442564 C62.7268601,30.7821383 63.012721,30.1436397 63.012721,29.438367 C63.012721,28.7330825 62.726872,28.0945958 62.2647346,27.632454 C61.8025971,27.170324 61.1640883,26.8844914 60.4588043,26.8844914 C59.7837951,26.8844914 59.170367,27.1455164 58.7140995,27.571941 C58.255069,28.0009626 57.954551,28.5979571 57.9100343,29.2653069 L57.8867442,29.6143087 L50.0347958,31.7573059 L49.8803626,31.3293634 C49.6324133,30.6423051 49.3325238,29.9743387 48.9851885,29.329911 C48.6375686,28.6849497 48.241732,28.0660884 47.8023392,27.4778335 L47.5246488,27.1060875 L51.5742893,23.6904452 L51.834275,23.7738209 C51.902153,23.7955928 51.9704817,23.8120521 52.0386562,23.8226653 C52.099763,23.8321875 52.1704515,23.8371443 52.2508758,23.8371443 C52.6268849,23.8371443 52.967283,23.6847651 53.2136314,23.4384088 C53.4599917,23.1920644 53.6123615,22.8516836 53.6123615,22.4756805 C53.6123615,22.0996773 53.4599917,21.7592847 53.2136314,21.5129403 C52.967283,21.266584 52.6268849,21.1142166 52.2508758,21.1142166 C51.8748666,21.1142166 51.5344804,21.266584 51.288132,21.5129403 C51.0417718,21.7592847 50.8893901,22.0996773 50.8893901,22.4756805 C50.8893901,22.5326003 50.8917855,22.5822985 50.8964103,22.6249884 C50.9012723,22.6698483 50.9096444,22.718918 50.921242,22.771723 L50.9846375,23.0601407 L46.969446,26.4467184 L46.6495512,26.110654 C46.1603171,25.5967151 45.6324599,25.1160624 45.0702131,24.6728939 C44.5101601,24.2314685 43.9201169,23.8304325 43.3042816,23.4740193 L42.9042234,23.242474 L45.7435147,17.5643027 L46.0663504,17.5838689 C46.1032659,17.5860983 46.1268999,17.5874383 46.1343707,17.5876754 C46.1461106,17.588043 46.1432527,17.5870944 46.2010866,17.5870944 C46.7981737,17.5870944 47.3387195,17.345102 47.729955,16.9538846 C48.1211786,16.5626673 48.363163,16.0221183 48.363163,15.4250408 C48.363163,14.8279633 48.1211786,14.2874144 47.729955,13.8962089 C47.3387313,13.5049916 46.7981737,13.2629992 46.2010866,13.2629992 C45.6039995,13.2629992 45.0634419,13.5049916 44.6722183,13.8962089 C44.2809947,14.2874381 44.0389984,14.8279633 44.0389984,15.4250408 C44.0389984,15.7257912 44.098279,16.0089675 44.2054916,16.263589 C44.3179576,16.5306973 44.483182,16.770911 44.6882628,16.9713282 L44.9453669,17.2226294 L42.129413,22.8541975 L41.7044876,22.6724453 C40.9500857,22.3497808 40.1657648,22.0877716 39.3576914,21.892572 C38.5684255,21.7019261 37.750806,21.574058 36.910181,21.5146716 L36.4569612,21.482666 L36.3867352,13.020568 L36.688356,12.8917394 C37.1512761,12.694014 37.544314,12.3628353 37.8193955,11.9462649 C38.0846226,11.5446241 38.239044,11.0617658 38.239044,10.5411388 C38.239044,9.83586612 37.9532068,9.19736757 37.4910694,8.73523758 C37.0289201,8.27310759 36.3904232,7.98726315 35.6851392,7.98726315 C34.9798433,7.98726315 34.3413464,8.27310759 33.8791971,8.73523758 C33.4170715,9.19736757 33.1312225,9.83586612 33.1312225,10.5411388 C33.1312225,11.050702 33.2793944,11.5244057 33.534779,11.9214099 C33.7996384,12.3331658 34.1786715,12.6637635 34.6266143,12.867999 L34.9113249,12.9978119 L34.9818355,21.4956509 L34.528758,21.5351746 C33.8688802,21.5927467 33.2303358,21.6906014 32.6154135,21.8261774 C31.9838182,21.9654413 31.3647099,22.1458417 30.7611362,22.36458 L30.3242574,22.5229121 L27.9053734,16.9185706 L28.1384047,16.6818195 C28.3190096,16.4983479 28.4642525,16.2804634 28.563093,16.0391824 C28.6569649,15.8100326 28.7087272,15.5560158 28.7087272,15.286441 C28.7087272,14.7374608 28.4862381,14.2404792 28.1265225,13.8807694 C27.7668306,13.5210833 27.2698055,13.2985741 26.7208165,13.2985741 C26.1718275,13.2985741 25.6748261,13.5210715 25.3151105,13.8807694 C24.9554068,14.2404792 24.7329058,14.7374608 24.7329058,15.286441 C24.7329058,15.8354331 24.9554186,16.3324383 25.3151105,16.6921244 C25.6748261,17.0518342 26.1718275,17.2743316 26.7208165,17.2743316 C26.8046916,17.2743316 26.6931506,17.2769286 26.7513759,17.2759087 L27.1178626,17.2649161 L29.5348493,22.8648582 L29.120134,23.0745248 C28.4389583,23.4189019 27.7877965,23.8139376 27.1716765,24.2545803 C26.5523666,24.6975236 25.9678021,25.187319 25.4231414,25.7188319 L25.0860874,26.0477694 L21.5299856,22.6837107 L21.6929332,22.3579868 C21.7375685,22.268753 21.7731796,22.1701631 21.7982722,22.0635095 C21.8216808,21.9641251 21.8340611,21.8588826 21.8340611,21.7490154 C21.8340611,21.3730123 21.6816795,21.0326197 21.4353311,20.7862752 C21.1889708,20.539919 20.8485846,20.3875516 20.4725754,20.3875516 C20.0965781,20.3875516 19.7561682,20.539919 19.5098198,20.7862752 C19.2634714,21.0326197 19.1110897,21.3730123 19.1110897,21.7490154 C19.1110897,22.1250185 19.2634714,22.4653993 19.5098198,22.7117437 C19.7561682,22.9581 20.0965781,23.1104792 20.4725754,23.1104792 C20.5743806,23.1104792 20.6724622,23.0997356 20.7657886,23.0793393 C20.8631231,23.0580892 20.9553348,23.0270679 21.0412851,22.9874849 L21.3425858,22.848719 L24.9151709,26.2283833 L24.604336,26.5839901 C24.1650618,27.0865688 23.7573311,27.6217815 23.3846068,28.1860826 C23.0162226,28.7438024 22.6843508,29.3275868 22.3923709,29.9339493 L22.1957334,30.3423256 L14.0923849,27.2198443 L14.0969623,26.8738901 L14.0951123,26.8738901 C14.0951123,26.1686056 13.8092514,25.530107 13.347114,25.067977 C12.8850003,24.6058707 12.2464797,24.3200144 11.5411957,24.3200144 C10.8358998,24.3200144 10.1974029,24.6058589 9.73525359,25.067977 C9.27312804,25.5301189 8.98727901,26.1686056 8.98727901,26.8738901 C8.98727901,27.5791627 9.27313989,28.2176732 9.73525359,28.6797794 C10.197391,29.1419094 10.8358998,29.4277657 11.5411957,29.4277657 C11.8683478,29.4277657 12.1772261,29.3686639 12.4578929,29.2608482 C12.7498135,29.1487398 13.018278,28.9816326 13.2513685,28.7714916 L13.4751502,28.5697462 L21.6622197,31.724494 L21.5337329,32.1590653 C21.3336563,32.835795 21.1802074,33.5337511 21.0771689,34.2492101 C20.9768105,34.9460752 20.9248347,35.6624354 20.9248347,36.3949822 C20.9248347,36.6724428 20.9311434,36.931523 20.9435474,37.1725312 C20.9569119,37.4320383 20.9769647,37.6900395 21.003504,37.9462974 L21.0511633,38.4064945 L16.2787949,39.1963406 L16.1079496,38.90382 C15.9157471,38.5747046 15.641804,38.3017027 15.3152685,38.1140924 C15.0010065,37.9335379 14.6337845,37.8302639 14.2392998,37.8302639 C13.6422008,37.8302639 13.1016669,38.0722445 12.7104314,38.4634618 C12.3192078,38.8546791 12.0772115,39.39524 12.0772115,39.9923056 C12.0772115,40.5893949 12.3192078,41.129932 12.7104314,41.5211494 C13.101655,41.9123667 13.6422008,42.1543591 14.2392998,42.1543591 C14.7671332,42.1543591 15.2492997,41.9673774 15.6227711,41.6565238 C16.0038676,41.3393141 16.2742768,40.8932759 16.3673542,40.3851475 L16.4297298,40.0446244 L21.1906666,39.2566638 L21.2935035,39.7101372 C21.5270565,40.7398887 21.8684507,41.7313378 22.3052584,42.6719623 C22.7486357,43.6266862 23.2908417,44.5274312 23.9187846,45.3611174 L24.1984079,45.732318 L20.7370317,48.6759998 L20.4455974,48.5299529 C20.3355861,48.4748118 20.2149971,48.4310784 20.0855023,48.4005551 C19.9637393,48.371858 19.8351695,48.3566319 19.7013938,48.3566319 C19.2425886,48.3566319 18.8272329,48.542582 18.526632,48.8431782 C18.226031,49.1437743 18.0400898,49.5591114 18.0400898,50.0179092 C18.0400898,50.4767071 18.226031,50.8920442 18.526632,51.1926403 C18.8272329,51.4932484 19.2425886,51.6791866 19.7013938,51.6791866 C20.1601871,51.6791866 20.5755427,51.4932484 20.8761437,51.1926403 C21.1767447,50.8920442 21.3626859,50.4767071 21.3626859,50.0179092 C21.3626859,49.9491429 21.3595671,49.8873967 21.353543,49.8325402 C21.3463805,49.7674144 21.3365617,49.7073758 21.3243,49.6524244 L21.2596712,49.3630581 L24.7568125,46.3889479 L25.077573,46.7231979 C25.6913805,47.3627993 26.3633185,47.9488841 27.0853229,48.4733414 C27.8019911,48.9939328 28.5648718,49.4515803 29.3659606,49.8383034 L29.7747229,50.0356137 L27.0157017,57.1674708 L26.6981905,57.1859935 C26.027225,57.2251141 25.4253945,57.5241805 24.9918361,57.9841404 C24.5613134,58.4408867 24.2974382,59.0573526 24.2974382,59.7363472 C24.2974382,60.4416199 24.5832753,61.0801185 25.0454127,61.5422484 C25.5075502,62.0043784 26.146059,62.2902229 26.851343,62.2902229 C27.5566388,62.2902229 28.1951476,62.0043666 28.6572732,61.5422484 C29.1193987,61.0801303 29.4052596,60.4416199 29.4052596,59.7363472 C29.4052596,59.380859 29.334666,59.045435 29.2070567,58.7431905 C29.0736487,58.4271904 28.8773669,58.1428876 28.6336629,57.9056266 L28.4006079,57.6787061 L31.151257,50.5685378 L31.585017,50.6974613 C32.2655761,50.8997284 32.9672551,51.0548706 33.6862594,51.1589865 C34.3867763,51.2604224 35.1068478,51.3129784 35.8430825,51.3129784 C36.072319,51.3129784 36.2750756,51.3092549 36.4524312,51.3020095 C36.6345659,51.2945625 36.835935,51.2818622 37.0553883,51.2641933 L37.5165059,51.227065 L38.1710948,55.8329965 L37.8683,55.9966293 C37.5654933,56.1602739 37.3120773,56.4035114 37.1362276,56.6982259 C36.9676947,56.9806788 36.8708464,57.3131383 36.8708464,57.6706899 C36.8708464,58.1956333 37.0836115,58.6708786 37.4275553,59.0148287 C37.7715109,59.3587788 38.246752,59.5715168 38.7717039,59.5715168 C39.2966676,59.5715168 39.7719086,59.3587788 40.1158643,59.0148287 C40.4598199,58.6708786 40.6725613,58.1956451 40.6725613,57.6706899 C40.6725613,57.246293 40.5353348,56.8560125 40.3032404,56.542052 C40.0630821,56.2171582 39.7235971,55.9715845 39.33082,55.8513413 L39.029555,55.7591193 L38.3687285,51.1092409 L38.8253873,51.0166631 C39.8023612,50.8185938 40.7454911,50.5244012 41.6444836,50.1444492 C42.5576233,49.7585326 43.4268747,49.2821252 44.2413043,48.7263146 L44.6171119,48.4698432 L50.3246767,55.5607891 L50.1190504,55.8627609 C49.9770686,56.0712536 49.8652667,56.3011268 49.7899297,56.5460957 C49.7177826,56.7806885 49.6789224,57.0331518 49.6789224,57.2982561 C49.6789224,58.0035288 49.9647714,58.6420392 50.4269088,59.1041573 C50.8890343,59.5662754 51.5275432,59.8521317 52.2328272,59.8521317 C52.938123,59.8521317 53.57662,59.5662873 54.0387692,59.1041573 C54.5009066,58.6420273 54.7867438,58.0035288 54.7867438,57.2982561 C54.7867438,56.5929834 54.5008948,55.954473 54.0387692,55.4923667 C53.5766318,55.0302367 52.938123,54.7443805 52.2328272,54.7443805 C52.1658029,54.7443805 52.1072338,54.7461592 52.0568589,54.74961 C51.9928824,54.7539738 51.934337,54.7598674 51.8811398,54.7671484 L51.6064614,54.8047748 L45.7648837,47.5473619 L46.0951547,47.2349312 C46.5446747,46.8096805 46.9702049,46.3534085 47.3688875,45.8689968 C47.7625302,45.3906921 48.12776,44.8860263 48.461802,44.3577863 L48.7101663,43.9650155 L54.0069173,46.8801426 L53.9395492,47.2317176 C53.9259119,47.3029148 53.9160219,47.3696534 53.9101757,47.4314588 C53.9049698,47.4863747 53.902278,47.5535757 53.902278,47.6334651 C53.902278,48.2185182 54.1394004,48.7481694 54.52275,49.1315128 C54.9060996,49.5148562 55.4357474,49.751963 56.02081,49.751963 C56.6058725,49.751963 57.1355322,49.5148562 57.5188818,49.1315128 C57.9022314,48.7481694 58.139342,48.2185182 58.139342,47.6334651 C58.139342,47.0484119 57.9022314,46.5187726 57.5188818,46.1354292 C57.1355322,45.7520857 56.6058725,45.5149671 56.02081,45.5149671 C55.7785883,45.5149671 55.5474188,45.5547043 55.333373,45.6279174 C55.1103266,45.7042019 54.9041429,45.8165949 54.7218541,45.9580408 L54.4666237,46.1560745 L49.1232926,43.2153216 L49.322207,42.7973045 C49.5922249,42.2298135 49.8275449,41.6424361 50.0253209,41.0380183 C50.2208556,40.4404546 50.3793562,39.8286254 50.4981309,39.2053055 L50.5852434,38.7481441 L54.6243773,39.2739414 L54.7159605,39.5797315 C54.8011519,39.8642122 54.9762307,40.1093115 55.207922,40.2816601 C55.4336603,40.4495974 55.7148608,40.5489937 56.02081,40.5489937 C56.3968191,40.5489937 56.7372172,40.3966145 56.9835656,40.1502701 C57.2299258,39.9039257 57.3822956,39.563533 57.3822956,39.1875299 C57.3822956,38.8115268 57.2299258,38.471146 56.9835656,38.2247897 C56.7372172,37.9784453 56.3968191,37.8260661 56.02081,37.8260661 C55.8283703,37.8260661 55.6458325,37.8655542 55.4808808,37.9367871 C55.3084109,38.0112572 55.1549738,38.1195591 55.0292026,38.2530362 L54.8567919,38.4359624 L54.6068979,38.4034232 Z M51.7341656,37.0372161 L54.5019265,37.3975069 C54.6783334,37.2474638 54.8767261,37.1232006 55.0913767,37.0305043 C55.3769648,36.9071661 55.6912624,36.8388029 56.02081,36.8388029 C56.6693392,36.8388029 57.2565363,37.1017134 57.6816041,37.5267743 C58.10666,37.9518234 58.3695747,38.5389992 58.3695747,39.1875299 C58.3695747,39.8360487 58.10666,40.4232364 57.6816041,40.8482973 C57.2565363,41.2733464 56.6693392,41.5362569 56.02081,41.5362569 C55.497791,41.5362569 55.0135731,41.3637422 54.621721,41.0722414 C54.3076369,40.8386091 54.0539481,40.5287634 53.8882019,40.170358 L51.372268,39.8428554 C51.2593514,40.353806 51.1223265,40.854179 50.962474,41.3426938 C50.8002735,41.8383472 50.6143323,42.3233637 50.406026,42.7963559 L54.3922235,44.9902134 C54.5873195,44.8696263 54.7966694,44.7700402 55.0171307,44.6946333 C55.3334679,44.5864263 55.6711622,44.5277039 56.02081,44.5277039 C56.8784045,44.5277039 57.6548632,44.8753539 58.2169203,45.4374019 C58.7789773,45.99945 59.126621,46.7758843 59.126621,47.6334651 C59.126621,48.4910458 58.7789773,49.267492 58.2169203,49.8295401 C57.6548632,50.3915881 56.8784045,50.7392262 56.02081,50.7392262 C55.1632155,50.7392262 54.3867686,50.3915881 53.8247115,49.8295401 C53.2626544,49.267492 52.9149989,48.4910458 52.9149989,47.6334651 C52.9149989,47.5652205 52.9182007,47.4903946 52.9244976,47.4093668 L49.0404491,45.2717414 C48.7563196,45.6931381 48.4519239,46.1009334 48.1286257,46.4937634 C47.804533,46.8875658 47.459937,47.2670909 47.0963081,47.630963 L52.0325016,53.7635445 C52.1042929,53.7592874 52.171163,53.7571173 52.2328272,53.7571173 C53.2106431,53.7571173 54.095939,54.153493 54.7367958,54.7943395 C55.3776408,55.4351741 55.7740228,56.3204559 55.7740228,57.2982561 C55.7740228,58.2760563 55.3776289,59.161338 54.7367958,59.8021845 C54.095939,60.4430073 53.2106431,60.8393949 52.2328272,60.8393949 C51.2550112,60.8393949 50.3697153,60.4430192 49.7288703,59.8021845 C49.0880135,59.161338 48.6916315,58.2760563 48.6916315,57.2982561 C48.6916315,56.9391155 48.7466905,56.5892481 48.8489226,56.2568479 C48.9168006,56.036153 49.005431,55.8248736 49.1125013,55.6253339 L44.4167033,49.7913801 C43.6630841,50.2745111 42.8639164,50.696726 42.0262916,51.0507439 C41.2088499,51.3962119 40.3558209,51.6753682 39.4739046,51.8813825 L39.9203177,55.022517 C40.3899734,55.2264205 40.7942651,55.5506147 41.0938344,55.9558604 C41.4495299,56.4370349 41.6598403,57.0303296 41.6598403,57.6706899 C41.6598403,58.4681608 41.336554,59.1901893 40.8138909,59.7128441 C40.2912277,60.2355107 39.5691876,60.5587918 38.7717039,60.5587918 C37.9742201,60.5587918 37.2521919,60.2355107 36.7295168,59.7128441 C36.2068537,59.1901774 35.8835674,58.468149 35.8835674,57.6706899 C35.8835674,57.1328683 36.0324745,56.6273369 36.2916419,56.1930147 C36.4980746,55.8470249 36.77484,55.5479229 37.1020989,55.3153697 L36.6703311,52.2772957 C36.6119991,52.280201 36.5522323,52.2829166 36.4910069,52.2854305 C36.251406,52.2952255 36.0349885,52.3002416 35.8430825,52.3002416 C35.0671811,52.3002416 34.3006006,52.2437367 33.5474201,52.1346878 C32.9345731,52.0459402 32.332541,51.9220209 31.7434584,51.7651474 L29.5470872,57.4425835 C29.7794426,57.7156566 29.9713486,58.0250516 30.1133659,58.3613887 C30.293117,58.7871255 30.3925386,59.2518999 30.3925386,59.7363472 C30.3925386,60.7141475 29.9961566,61.5994292 29.3552998,62.2402757 C28.7144548,62.8811103 27.8291589,63.277486 26.851343,63.277486 C25.873527,63.277486 24.9882311,62.8810985 24.3473743,62.2402757 C23.7065412,61.5994292 23.3101473,60.7141475 23.3101473,59.7363472 C23.3101473,58.7975964 23.6766104,57.9435494 24.2745038,57.3092369 C24.8051596,56.7462639 25.5188039,56.3571573 26.3207939,56.236333 L28.5314664,50.5219109 C27.822613,50.1544102 27.1460621,49.7360018 26.5068181,49.2716424 C25.8655463,48.8058364 25.2595297,48.2921465 24.6938439,47.7356955 L22.3345963,49.7420969 C22.3447353,49.8382085 22.3499649,49.9303238 22.3499649,50.0179092 C22.3499649,50.7492109 22.0534907,51.4113668 21.5741703,51.8906676 C21.0948618,52.3699803 20.4327072,52.6664497 19.7013938,52.6664497 C18.9700685,52.6664497 18.3079139,52.3699803 17.8286054,51.8906676 C17.3492731,51.4113668 17.0528107,50.7492109 17.0528107,50.0179092 C17.0528107,49.2866076 17.3492731,48.6244636 17.8286054,48.1451509 C18.3079139,47.6658501 18.9700685,47.3693688 19.7013938,47.3693688 C19.9089767,47.3693688 20.1125397,47.3939273 20.3092009,47.4402933 C20.3996338,47.4616027 20.4889283,47.4879755 20.5767879,47.5191036 L22.8576153,45.5793933 C22.3038591,44.7977294 21.8185383,43.9631775 21.410535,43.0846076 C21.0105835,42.2233745 20.6852101,41.3185265 20.4428225,40.3784594 L17.2519505,40.9065572 C17.0712151,41.5024014 16.7184486,42.023645 16.2513899,42.4123958 C15.7043457,42.867731 15.0028208,43.1416223 14.2392998,43.1416223 C13.3696808,43.1416223 12.5823478,42.7891105 12.0124048,42.2191766 C11.44245,41.6492428 11.0899325,40.8619225 11.0899325,39.9923056 C11.0899325,39.1227124 11.44245,38.3353803 12.0124048,37.7654464 C12.5823478,37.1955363 13.3696808,36.8429889 14.2392998,36.8429889 C14.8065272,36.8429889 15.3413216,36.99538 15.8050599,37.2618124 C16.1833103,37.4791277 16.5115535,37.7712096 16.7690251,38.1171993 L19.9829263,37.5852832 C19.9739731,37.4648265 19.9663718,37.3439311 19.9601224,37.2226562 C19.945157,36.9320685 19.9375557,36.6559242 19.9375557,36.3949822 C19.9375557,35.6230777 19.9934804,34.8602092 20.1014638,34.110373 C20.1890981,33.5018997 20.3114778,32.903838 20.466492,32.3183105 L13.6727957,29.700483 C13.4122646,29.8966787 13.1219212,30.0584734 12.8088569,30.1787166 C12.4114432,30.3313567 11.9838733,30.4150289 11.5411957,30.4150289 C10.5633797,30.4150289 9.67808379,30.0186532 9.03722699,29.3778067 C8.39638206,28.736972 8,27.8516903 8,26.8738901 C8,25.8960899 8.39639392,25.0108081 9.03722699,24.3699616 C9.67808379,23.7291388 10.5633797,23.3327513 11.5411957,23.3327513 C12.5190116,23.3327513 13.4043076,23.729127 14.0451525,24.3699616 C14.612368,24.937168 14.9880096,25.695898 15.0668567,26.5407429 L21.7080765,29.0998243 C21.9678012,28.5977081 22.2534249,28.1112567 22.563157,27.6423201 C22.8701853,27.1774864 23.2024247,26.7282582 23.5580847,26.2964736 L21.1333426,24.0026744 C21.0808451,24.0181376 21.0277309,24.0317628 20.9740593,24.0434788 C20.8113964,24.0790181 20.6435394,24.0977424 20.4725754,24.0977424 C19.8240462,24.0977424 19.2368491,23.83482 18.8117813,23.409771 C18.3867254,22.98471 18.1238107,22.3975342 18.1238107,21.7490154 C18.1238107,21.1004966 18.3867254,20.5133089 18.8117813,20.088248 C19.2368491,19.6631989 19.8240462,19.4002884 20.4725754,19.4002884 C21.1211165,19.4002884 21.7083018,19.6631989 22.1333577,20.088248 C22.5584254,20.5133089 22.821352,21.1004966 22.821352,21.7490154 C22.821352,21.9325938 22.7996154,22.1128282 22.7585613,22.2872046 C22.7455881,22.342322 22.7304685,22.3970243 22.7132737,22.4511931 L25.0787944,24.6889619 C25.5593718,24.2469199 26.067698,23.8338002 26.6009034,23.4524372 C27.1321047,23.0725208 27.6876278,22.7244914 28.2646266,22.4111831 L26.4690725,18.251029 C25.7479456,18.1905991 25.0999262,17.8729981 24.617072,17.3901517 C24.0786608,16.851749 23.7456268,16.1079487 23.7456268,15.286441 C23.7456268,14.4649451 24.0786726,13.7211566 24.617072,13.1827422 C25.155507,12.6443514 25.8992955,12.3113109 26.7208165,12.3113109 C27.5423375,12.3113109 28.2861379,12.6443396 28.8245491,13.1827422 C29.3629841,13.7211566 29.6960181,14.4649451 29.6960181,15.286441 C29.6960181,15.6820933 29.6168389,16.062733 29.4732444,16.4132645 C29.3692217,16.6671745 29.2312481,16.9033564 29.0650275,17.1161062 L30.8652657,21.2870752 C31.3658365,21.1223633 31.8789773,20.9815222 32.4033006,20.8659156 C32.9289403,20.7500125 33.458683,20.660257 33.9908923,20.5980246 L33.9329635,13.6169221 C33.4356301,13.3332833 33.0140013,12.93303 32.7056093,12.4536224 C32.3501627,11.9010729 32.1439435,11.2445378 32.1439435,10.5411388 C32.1439435,9.56333856 32.5403374,8.67805683 33.1811705,8.03721033 C33.8220273,7.39638755 34.7073232,7 35.6851392,7 C36.6629551,7 37.5482511,7.39638755 38.1891078,8.03721033 C38.8299409,8.67805683 39.2263348,9.56333856 39.2263348,10.5411388 C39.2263348,11.2597046 39.0108897,11.9296514 38.6408335,12.4900274 C38.3218044,12.9731348 37.8868941,13.3735186 37.3754728,13.6519397 L37.4328798,20.5698375 C38.1648809,20.6427542 38.8848102,20.7660331 39.5890862,20.9361642 C40.30126,21.1081926 40.9934641,21.3275238 41.6621527,21.5905173 L43.7546672,17.4057453 C43.5693664,17.1768919 43.4153364,16.9212506 43.2991943,16.6453908 C43.139828,16.2668975 43.0517193,15.8543826 43.0517193,15.4250408 C43.0517193,14.5554358 43.4042605,13.7681155 43.9741798,13.1981817 C44.5441228,12.6282478 45.3314676,12.2757242 46.2010866,12.2757242 C47.0707056,12.2757242 47.8580386,12.6282478 48.4279816,13.1981817 C48.9979246,13.7681155 49.3504539,14.5554358 49.3504539,15.4250408 C49.3504539,16.2946459 48.9979246,17.081978 48.4279816,17.6519119 C47.8883489,18.1915122 47.1538218,18.5361975 46.3391076,18.5713218 L44.194985,22.859261 C44.711541,23.1784747 45.207155,23.5253894 45.6795619,23.8977402 C46.1537831,24.271514 46.6073587,24.6730836 47.0379999,25.1001723 L49.9116097,22.6764416 C49.9053366,22.6062167 49.9021111,22.5391817 49.9021111,22.4756805 C49.9021111,21.8271616 50.1650376,21.239974 50.5900935,20.814913 C51.0151613,20.389864 51.6023465,20.1269535 52.2508758,20.1269535 C52.899405,20.1269535 53.4866021,20.389864 53.9116699,20.814913 C54.3367258,21.239974 54.5996405,21.8271616 54.5996405,22.4756805 C54.5996405,23.1241993 54.3367258,23.7113751 53.9116699,24.136436 C53.4866021,24.5614851 52.899405,24.8244074 52.2508758,24.8244074 C52.1357772,24.8244074 52.0144648,24.8141856 51.888243,24.7945126 C51.8617274,24.7903741 51.8354371,24.7858324 51.809384,24.7808993 L48.865394,27.263969 C49.2236391,27.7741251 49.5536492,28.3080216 49.8529102,28.8632748 C50.14808,29.4109388 50.4129869,29.9810979 50.6452355,30.5714636 L56.9681851,28.845772 C57.1000635,28.0642504 57.4880734,27.3694486 58.043051,26.8507664 C58.6759152,26.2592741 59.5253747,25.8972282 60.4588043,25.8972282 C61.4366203,25.8972282 62.3219162,26.2936158 62.962773,26.9344386 C63.6036061,27.5752851 64,28.4605668 64,29.438367 C64,30.4161673 63.6036179,31.301449 62.962773,31.9422836 C62.3219162,32.5831301 61.4366203,32.9795058 60.4588043,32.9795058 C59.9691433,32.9795058 59.5007091,32.8787221 59.0731629,32.6966734 C58.7240962,32.5480296 58.4037746,32.3448612 58.1228705,32.0979239 L51.5504419,33.8916941 C51.6033308,34.2264066 51.6460451,34.5669296 51.6782053,34.912955 C51.7247381,35.4136482 51.7485974,35.9081988 51.7485974,36.3949822 C51.7485974,36.5471005 51.7448501,36.7312007 51.737486,36.9463815 L51.7341656,37.0372161 Z M43.8490846,40.5880431 C43.5164893,40.5880431 43.2153903,40.7228246 42.9975023,40.9407091 C42.7796025,41.1586054 42.6448188,41.4596996 42.6448188,41.7922777 C42.6448188,42.1248675 42.7795906,42.4259617 42.9975023,42.6438581 C43.2153903,42.8617544 43.5164893,42.9965359 43.8490846,42.9965359 C44.1816679,42.9965359 44.482767,42.8617663 44.7006787,42.6438581 C44.9185785,42.4259617 45.0533503,42.1248675 45.0533503,41.7922777 C45.0533503,41.4596996 44.9185667,41.1586054 44.7006787,40.9407091 C44.482767,40.7228127 44.1816679,40.5880431 43.8490846,40.5880431 Z M42.2994638,40.2426937 C42.6960831,39.8460927 43.2439811,39.6007681 43.8490846,39.6007681 C44.4541998,39.6007681 45.002086,39.8460808 45.3987053,40.2426937 C45.7953126,40.6392947 46.0406412,41.1871721 46.0406412,41.7922777 C46.0406412,42.3973951 45.7953245,42.9452725 45.3987053,43.3418853 C45.002086,43.7384863 44.4542117,43.9837991 43.8490846,43.9837991 C43.2439693,43.9837991 42.6960712,43.7384745 42.2994638,43.3418853 C41.9028565,42.9452725 41.6575398,42.3973832 41.6575398,41.7922777 C41.6575398,41.1871839 41.9028683,40.6393066 42.2994638,40.2426937 Z M35.7521752,43.3477315 C35.0709403,43.3477315 34.4541918,43.6238402 34.0078262,44.0701987 C33.5614487,44.516569 33.2853474,45.1332957 33.2853474,45.8145316 C33.2853474,46.4957556 33.5614487,47.1124705 34.0078262,47.5588408 C34.4542037,48.0052229 35.0709403,48.281308 35.7521752,48.281308 C36.4334102,48.281308 37.0501468,48.0052229 37.4965243,47.5588408 C37.9428899,47.1124823 38.2190031,46.4957556 38.2190031,45.8145316 C38.2190031,45.1332957 37.9429136,44.516569 37.4965243,44.0701987 C37.0501705,43.6238402 36.4334221,43.3477315 35.7521752,43.3477315 Z M33.3097996,43.3721833 C33.9348846,42.7471083 34.7984083,42.3604683 35.7521752,42.3604683 C36.705954,42.3604683 37.5694778,42.7471083 38.1945628,43.3721833 C38.8196596,43.9972583 39.206294,44.86078 39.206294,45.8145316 C39.206294,46.7682713 38.8196477,47.6317812 38.1945628,48.2568561 C37.5694896,48.8819548 36.7059421,49.2685711 35.7521752,49.2685711 C34.7984083,49.2685711 33.9348727,48.8819548 33.3097996,48.2568561 C32.6847027,47.631793 32.2980684,46.7682713 32.2980684,45.8145316 C32.2980684,44.86078 32.6847027,43.9972583 33.3097996,43.3721833 Z M37.1881678,34.7777347 C36.6747306,34.7777347 36.2099013,34.9858242 35.8735114,35.3222088 C35.5371214,35.6585933 35.3290286,36.1234151 35.3290286,36.6368441 C35.3290286,37.1502613 35.5371214,37.6150713 35.8735114,37.9514558 C36.2099013,38.2878403 36.6747306,38.4959298 37.1881678,38.4959298 C37.7015933,38.4959298 38.1664107,38.2878403 38.5028006,37.9514558 C38.8391905,37.6150713 39.0472834,37.1502613 39.0472834,36.6368441 C39.0472834,36.1234151 38.8391905,35.6585933 38.5028006,35.3222088 C38.1664107,34.9858242 37.7015933,34.7777347 37.1881678,34.7777347 Z M35.1754729,34.6241815 C35.6905941,34.1090805 36.4021986,33.7904597 37.1881678,33.7904597 C37.9741252,33.7904597 38.6857179,34.1090805 39.2008391,34.6241815 C39.7159484,35.1392944 40.0345743,35.8508876 40.0345743,36.6368441 C40.0345743,37.4227889 39.7159484,38.1343701 39.2008391,38.649483 C38.6857179,39.1645841 37.9741252,39.4832049 37.1881678,39.4832049 C36.4021986,39.4832049 35.6905941,39.1645841 35.1754729,38.649483 C34.6603636,38.1343701 34.3417377,37.4227889 34.3417377,36.6368441 C34.3417377,35.8508876 34.6603636,35.1392944 35.1754729,34.6241815 Z M45.239837,31.8661059 C44.7980488,31.8661059 44.3980854,32.0451663 44.1086196,32.3346156 C43.8191656,32.6240769 43.6401142,33.0240219 43.6401142,33.4658149 C43.6401142,33.9076079 43.8191656,34.3075529 44.1086196,34.5970142 C44.3980854,34.8864635 44.7980488,35.0655239 45.239837,35.0655239 C45.6816371,35.0655239 46.0816004,34.8864635 46.3710544,34.5970142 C46.6605203,34.3075529 46.8395717,33.9076079 46.8395717,33.4658149 C46.8395717,33.0240219 46.6605203,32.6240769 46.3710544,32.3346156 C46.0816004,32.0451663 45.6816371,31.8661059 45.239837,31.8661059 Z M43.410593,31.6366003 C43.8787545,31.1684344 44.5255168,30.8788427 45.239837,30.8788427 C45.954169,30.8788427 46.6009314,31.1684344 47.0690929,31.6366003 C47.5372544,32.1047424 47.8268507,32.7515062 47.8268507,33.4658149 C47.8268507,34.1801236 47.5372544,34.8268874 47.0690929,35.2950295 C46.6009314,35.7631954 45.954169,36.0527871 45.239837,36.0527871 C44.5255168,36.0527871 43.8787545,35.7631954 43.410593,35.2950295 C42.9424196,34.8268874 42.6528233,34.1801236 42.6528233,33.4658149 C42.6528233,32.7515062 42.9424196,32.1047424 43.410593,31.6366003 Z M38.1361004,24.6457384 C37.4548654,24.6457384 36.8381169,24.9218353 36.3917513,25.3682056 C35.945362,25.8145759 35.6692606,26.4313026 35.6692606,27.1125385 C35.6692606,27.7937625 35.945362,28.4104892 36.3917513,28.8568595 C36.8381051,29.3032179 37.4548654,29.5793267 38.1361004,29.5793267 C38.8173472,29.5793267 39.4340957,29.3032179 39.8804494,28.8568595 C40.3268388,28.4104892 40.6029401,27.7937625 40.6029401,27.1125385 C40.6029401,26.4313026 40.3268388,25.8145759 39.8804494,25.3682056 C39.4340838,24.9218353 38.8173472,24.6457384 38.1361004,24.6457384 Z M35.6937129,24.6701902 C36.3187979,24.0451034 37.1823335,23.6584752 38.1361004,23.6584752 C39.0898791,23.6584752 39.9534147,24.0451034 40.5784879,24.6701902 C41.2035847,25.2952533 41.5902191,26.158775 41.5902191,27.1125385 C41.5902191,28.06629 41.2035847,28.9298118 40.5784879,29.5548867 C39.9534029,30.1799617 39.0898791,30.5666017 38.1361004,30.5666017 C37.1823335,30.5666017 36.3187979,30.1799617 35.6937129,29.5548867 C35.068616,28.9298118 34.6819816,28.06629 34.6819816,27.1125385 C34.6819816,26.158775 35.068616,25.2952533 35.6937129,24.6701902 Z M29.7095012,27.8288868 C29.2686972,27.8288868 28.869647,28.0075321 28.5808452,28.2963293 C28.2920315,28.5851264 28.1133833,28.9841703 28.1133833,29.4249672 C28.1133833,29.8657641 28.2920315,30.2648197 28.5808452,30.5536169 C28.869647,30.842414 29.2686972,31.0210594 29.7095012,31.0210594 C30.1502933,31.0210594 30.5493554,30.842414 30.8381572,30.5536169 C31.1269708,30.2648197 31.305619,29.8657641 31.305619,29.4249672 C31.305619,28.9841703 31.1269708,28.5851264 30.8381572,28.2963293 C30.5493554,28.0075321 30.1502933,27.8288868 29.7095012,27.8288868 Z M27.8828067,27.5983139 C28.350316,27.1308002 28.9961534,26.8416236 29.7095012,26.8416236 C30.4228252,26.8416236 31.0686982,27.1308002 31.5361956,27.5983139 C32.0037049,28.0658039 32.2928981,28.7116308 32.2928981,29.4249672 C32.2928981,30.1382798 32.0037049,30.7841423 31.5361956,31.2516323 C31.0686982,31.7191459 30.4228252,32.0083225 29.7095012,32.0083225 C28.9961534,32.0083225 28.350316,31.7191459 27.8828067,31.2516323 C27.4152974,30.7841423 27.1261043,30.1382798 27.1261043,29.4249672 C27.1261043,28.7116308 27.4152974,28.0658039 27.8828067,27.5983139 Z M24.6654784,35.2870963 C25.4369328,34.5156662 26.5026439,34.0385117 27.6797419,34.0385117 C28.8568279,34.0385117 29.922539,34.5156662 30.6939816,35.2870963 C31.4654241,36.0585265 31.9425862,37.1242323 31.9425862,38.3012995 C31.9425862,39.4783667 31.465436,40.5440725 30.6939816,41.3155027 C29.922539,42.0869328 28.8568279,42.5640873 27.6797419,42.5640873 C26.5026439,42.5640873 25.436921,42.0869447 24.6654784,41.3155027 C23.894024,40.5440844 23.4168737,39.4783667 23.4168737,38.3012995 C23.4168737,37.1242323 23.8940359,36.0585265 24.6654784,35.2870963 Z" id="Shape" fill="#485668" fill-rule="nonzero"></path>
    </g>
</svg>