<?xml version="1.0" encoding="UTF-8"?>
<svg width="48123px" height="48123px" viewBox="0 0 48123 48123" version="1.1" xmlns="http://www.w3.org/2000/svg" xmlns:xlink="http://www.w3.org/1999/xlink">
    <!-- Generator: Sketch 51.3 (57544) - http://www.bohemiancoding.com/sketch -->
    <title>Artboard</title>
    <desc>Created with Sketch.</desc>
    <defs></defs>
    <g id="Artboard" stroke="none" stroke-width="1" fill="none" fill-rule="evenodd">
        <path d="M17045.6452,23966.7456 C16282.8276,23966.7456 15592.2507,24275.8937 15092.4057,24775.7406 C14592.5708,25275.5576 14283.3877,25966.1334 14283.3877,26728.9387 C14283.3877,27491.734 14592.5608,28182.3098 15092.4057,28682.1468 C15592.2407,29181.9737 16282.8276,29491.1418 17045.6452,29491.1418 C17808.4528,29491.1418 18499.0396,29181.9637 18998.8746,28682.1468 C19498.7196,28182.2998 19807.8827,27491.734 19807.8827,26728.9387 C19807.8827,25966.1434 19498.6996,25275.5576 18998.8746,24775.7406 C18499.0296,24275.9037 17808.4428,23966.7456 17045.6452,23966.7456 Z M39752.9312,26815.0582 L36453.9383,26385.6108 L36480.6486,25997.0532 C36491.5987,25837.6241 36499.3788,25691.915 36503.8888,25560.3458 C36507.9489,25441.7766 36510.0089,25295.6575 36510.0089,25121.3685 C36510.0089,24714.191 36492.0787,24322.4334 36457.1384,23946.3957 C36421.078,23558.3381 36366.3575,23171.2604 36293.9867,22786.2428 L36223.396,22410.7251 L42964.0431,20571.0263 L43134.3748,20748.1452 C43334.1868,20955.914 43575.2892,21123.753 43844.4919,21238.3823 C44101.7944,21347.9416 44386.7273,21408.5912 44687.7603,21408.5912 C45282.5162,21408.5912 45820.9716,21167.5427 46210.6754,20777.8351 C46600.3793,20388.1374 46841.4417,19849.7007 46841.4417,19254.9544 C46841.4417,18660.198 46600.3893,18121.7713 46210.6754,17732.0537 C45820.9616,17342.3461 45282.5162,17101.3075 44687.7603,17101.3075 C44118.5346,17101.3075 43601.2395,17321.4262 43216.4756,17681.024 C42829.3818,18042.8118 42575.9593,18546.2487 42538.4189,19109.0153 L42518.7787,19403.3235 L35897.3428,21210.4824 L35767.1115,20849.6046 C35558.0194,20270.2182 35305.1269,19706.9316 35012.224,19163.4949 C34719.0811,18619.6083 34385.2777,18097.7314 34014.7441,17601.6645 L33780.5717,17288.1764 L37195.5757,14407.814 L37414.8179,14478.1236 C37472.0585,14496.4835 37529.679,14510.3634 37587.1696,14519.3133 C37638.7001,14527.3433 37698.3107,14531.5232 37766.1314,14531.5232 C38083.2145,14531.5232 38370.2674,14403.024 38578.0095,14195.2753 C38785.7615,13987.5366 38914.2528,13700.4983 38914.2528,13383.4203 C38914.2528,13066.3422 38785.7615,12779.2939 38578.0095,12571.5552 C38370.2674,12363.8065 38083.2145,12235.3173 37766.1314,12235.3173 C37449.0482,12235.3173 37162.0054,12363.8065 36954.2633,12571.5552 C36746.5112,12779.2939 36618.01,13066.3422 36618.01,13383.4203 C36618.01,13431.42 36620.03,13473.3297 36623.93,13509.3295 C36628.0301,13547.1593 36635.0901,13588.539 36644.8702,13633.0687 L36698.3308,13876.2872 L33312.3771,16732.1398 L33042.6144,16448.7415 C32630.0503,16015.3442 32184.9158,15610.0166 31710.7811,15236.2989 C31238.4964,14864.0512 30740.9215,14525.8633 30221.5963,14225.3051 L29884.2329,14030.0463 L32278.5668,9241.72556 L32550.8095,9258.22546 C32581.9398,9260.10545 32601.87,9261.23544 32608.1701,9261.43544 C32618.0702,9261.74544 32615.6601,9260.94544 32664.4306,9260.94544 C33167.9456,9260.94544 33623.7802,9056.87669 33953.7034,8726.96871 C34283.6167,8397.06072 34487.6788,7941.22351 34487.6788,7437.71659 C34487.6788,6934.20966 34283.6167,6478.37245 33953.7034,6148.47446 C33623.7902,5818.56648 33167.9456,5614.49773 32664.4306,5614.49773 C32160.9156,5614.49773 31705.0711,5818.56648 31375.1578,6148.47446 C31045.2445,6478.39245 30841.1725,6934.20966 30841.1725,7437.71659 C30841.1725,7691.33504 30891.163,7930.13358 30981.5739,8144.85226 C31076.4148,8370.10089 31215.7462,8572.66965 31388.6879,8741.67862 L31605.5001,8953.59732 L29230.8464,13702.6183 L28872.5129,13549.3492 C28236.3365,13277.2509 27574.93,13056.3023 26893.4932,12891.6933 C26227.9166,12730.9242 25538.4297,12623.0949 24829.5426,12573.0152 L24447.3488,12546.0254 L24388.1282,5410.05898 L24642.4808,5301.41964 C25032.8547,5134.68066 25364.298,4855.40237 25596.2703,4504.11451 C25819.9325,4165.41658 25950.1538,3758.22907 25950.1538,3319.19175 C25950.1538,2724.44539 25709.1114,2186.00868 25319.3975,1796.30106 C24929.6736,1406.59344 24391.2383,1165.54491 23796.4824,1165.54491 C23201.7164,1165.54491 22663.2811,1406.59344 22273.5572,1796.30106 C21883.8533,2186.00868 21642.8009,2724.44539 21642.8009,3319.19175 C21642.8009,3748.89913 21767.7522,4148.36669 21983.1143,4483.15464 C22206.4665,4830.38252 22526.0997,5109.17081 22903.8435,5281.39976 L23143.9359,5390.86909 L23203.3965,12556.9753 L22821.3227,12590.3051 C22264.8571,12638.8548 21726.3818,12721.3743 21207.8266,12835.7036 C20675.2113,12953.1429 20153.1261,13105.272 19644.141,13289.7308 L19275.7274,13423.25 L17235.9171,8697.18889 L17432.429,8497.54011 C17584.7305,8342.82105 17707.2118,8159.08218 17790.5626,7955.61342 C17869.7234,7762.3746 17913.3738,7548.16591 17913.3738,7320.8373 C17913.3738,6857.89013 17725.7519,6438.79269 17422.4089,6135.45454 C17119.0859,5832.1364 16699.9517,5644.49754 16236.9971,5644.49754 C15774.0425,5644.49754 15354.9283,5832.1264 15051.5853,6135.45454 C14748.2523,6438.79269 14560.6204,6857.89013 14560.6204,7320.8373 C14560.6204,7783.79447 14748.2623,8202.91191 15051.5853,8506.23006 C15354.9283,8809.5682 15774.0425,8997.19706 16236.9971,8997.19706 C16307.7278,8997.19706 16213.6669,8999.38704 16262.7674,8998.52705 L16571.8205,8989.2571 L18610.0307,13711.6082 L18260.3073,13888.4172 C17685.8815,14178.8254 17136.7661,14511.9534 16617.2009,14883.5411 C16094.9457,15257.0688 15601.9908,15670.1063 15142.6862,16118.3235 L14858.4534,16395.7118 L11859.6436,13558.8492 L11997.0549,13284.1709 C12034.6953,13208.9213 12064.7256,13125.7818 12085.8858,13035.8424 C12105.626,12952.0329 12116.0661,12863.2834 12116.0661,12770.634 C12116.0661,12453.5559 11987.5648,12166.5077 11779.8228,11958.769 C11572.0707,11751.0202 11285.0278,11622.531 10967.9447,11622.531 C10650.8715,11622.531 10363.8087,11751.0202 10156.0666,11958.769 C9948.32453,12166.5077 9819.82325,12453.5559 9819.82325,12770.634 C9819.82325,13087.7121 9948.32453,13374.7503 10156.0666,13582.489 C10363.8087,13790.2378 10650.8715,13918.737 10967.9447,13918.737 C11053.7955,13918.737 11136.5064,13909.677 11215.2071,13892.4771 C11297.288,13874.5573 11375.0487,13848.3974 11447.5295,13815.0176 L11701.612,13697.9983 L14714.322,16548.0209 L14452.1994,16847.8991 C14081.7657,17271.7165 13737.9322,17723.0537 13423.6191,18198.9208 C13112.966,18669.238 12833.1032,19161.5349 12586.8808,19672.8718 L12421.0591,20017.2497 L5587.62113,17384.1058 L5591.48117,17092.3676 L5589.92116,17092.3676 C5589.92116,16497.6112 5348.85876,15959.1745 4959.14488,15569.4669 C4569.451,15179.7793 4030.99564,14938.7207 3436.23972,14938.7207 C2841.4738,14938.7207 2303.03844,15179.7693 1913.31456,15569.4669 C1523.61069,15959.1845 1282.55829,16497.6112 1282.55829,17092.3676 C1282.55829,17687.114 1523.62069,18225.5607 1913.31456,18615.2483 C2303.02844,19004.9559 2841.4738,19246.0144 3436.23972,19246.0144 C3712.12247,19246.0144 3972.59506,19196.1747 4209.27741,19105.2553 C4455.44986,19010.7159 4681.84212,18869.7967 4878.40407,18692.5878 L5067.11595,18522.4589 L11971.1547,21182.8126 L11862.8036,21549.2804 C11694.0819,22119.9569 11564.6806,22708.5333 11477.7898,23311.8696 C11393.1589,23899.526 11349.3285,24503.6223 11349.3285,25121.3685 C11349.3285,25355.3471 11354.6485,25573.8258 11365.1086,25777.0645 C11376.3787,25995.9032 11393.2889,26213.4719 11415.6691,26429.5705 L11455.8595,26817.6482 L7431.38948,27483.7141 L7287.31805,27237.0356 C7125.23644,26959.4973 6894.22414,26729.2787 6618.8614,26571.0697 C6353.84876,26418.8106 6044.17568,26331.7211 5711.51237,26331.7211 C5207.98735,26331.7211 4752.16282,26535.7799 4422.23953,26865.6879 C4092.32625,27195.5959 3888.25422,27651.4431 3888.25422,28154.94 C3888.25422,28658.4569 4092.32625,29114.2841 4422.23953,29444.1921 C4752.15282,29774.1001 5207.98735,29978.1688 5711.51237,29978.1688 C6156.6268,29978.1688 6563.23084,29820.4898 6878.17398,29558.3514 C7199.54718,29290.853 7427.57944,28914.7153 7506.07023,28486.218 L7558.67075,28199.0597 L11573.5007,27534.5838 L11660.2216,27916.9914 C11857.1735,28785.3661 12145.0664,29621.441 12513.4201,30414.6562 C12887.3138,31219.7613 13344.5483,31979.3466 13874.0836,32682.3823 L14109.886,32995.4104 L11190.9569,35477.7752 L10945.1945,35354.616 C10852.4235,35308.1163 10750.7325,35271.2365 10641.5314,35245.4967 C10538.8504,35221.2968 10430.4293,35208.4569 10317.6182,35208.4569 C9930.71436,35208.4569 9580.45087,35365.2659 9326.95835,35618.7544 C9073.46583,35872.2428 8916.66427,36222.4907 8916.66427,36609.3883 C8916.66427,36996.286 9073.46583,37346.5338 9326.95835,37600.0223 C9580.45087,37853.5207 9930.71436,38010.3198 10317.6182,38010.3198 C10704.5121,38010.3198 11054.7755,37853.5207 11308.2681,37600.0223 C11561.7606,37346.5338 11718.5622,36996.286 11718.5622,36609.3883 C11718.5622,36551.3987 11715.9321,36499.329 11710.8521,36453.0693 C11704.812,36398.1496 11696.5319,36347.5199 11686.1918,36301.1802 L11631.6913,36057.1617 L14580.7806,33549.137 L14851.2733,33831.0053 C15368.8885,34370.372 15935.5241,34864.609 16544.3802,35306.8763 C17148.7362,35745.8836 17792.0626,36131.8112 18467.6093,36457.9293 L18812.3128,36624.3182 L16485.6696,42638.5115 L16217.9169,42654.1314 C15652.1013,42687.1212 15144.5862,42939.3196 14778.9726,43327.1973 C14415.919,43712.3649 14193.3968,44232.2217 14193.3968,44804.8082 C14193.3968,45399.5546 14434.4392,45937.9913 14824.1531,46327.6989 C15213.8669,46717.4066 15752.3123,46958.4551 16347.0682,46958.4551 C16941.8341,46958.4551 17480.2795,46717.3966 17869.9834,46327.6989 C18259.6873,45938.0013 18500.7497,45399.5546 18500.7497,44804.8082 C18500.7497,44505.0301 18441.2191,44222.1718 18333.608,43967.2934 C18221.1069,43700.815 18055.5852,43461.0665 17850.0732,43260.9877 L17653.5412,43069.6289 L19973.1243,37073.7255 L20338.9079,37182.4448 C20912.8137,37353.0138 21504.5295,37483.843 22110.8556,37571.6424 C22701.5915,37657.1819 23308.8175,37701.5017 23929.6737,37701.5017 C24122.9856,37701.5017 24293.9673,37698.3617 24443.5288,37692.2517 C24597.1203,37685.9717 24766.932,37675.2618 24951.9939,37660.3619 L25340.8477,37629.0521 L25892.8532,41513.1684 L25637.5107,41651.1575 C25382.1581,41789.1567 25168.456,41994.2754 25020.1645,42242.8039 C24878.0431,42480.9924 24796.3723,42761.3507 24796.3723,43062.8689 C24796.3723,43505.5462 24975.7941,43906.3137 25265.837,44196.362 C25555.8899,44486.4102 25956.6539,44665.8091 26399.3383,44665.8091 C26842.0327,44665.8091 27242.7967,44486.4102 27532.8495,44196.362 C27822.9024,43906.3137 28002.3042,43505.5562 28002.3042,43062.8689 C28002.3042,42704.9811 27886.5831,42375.8631 27690.8611,42111.1047 C27488.3391,41837.1264 27202.0563,41630.0376 26870.833,41528.6383 L26616.7804,41450.8687 L26059.5149,37529.6927 L26444.6087,37451.6232 C27268.4769,37284.5942 28063.8048,37036.5057 28821.9124,36716.0977 C29591.95,36390.6597 30324.9773,35988.9121 31011.7742,35520.205 L31328.6873,35303.9263 L36141.7952,41283.6198 L35968.3935,41538.2682 C35848.6623,41714.0871 35754.3814,41907.9359 35690.8507,42114.5147 C35630.0101,42312.3435 35597.2398,42525.2422 35597.2398,42748.8008 C35597.2398,43343.5472 35838.2922,43881.9939 36228.0061,44271.6915 C36617.71,44661.3891 37156.1553,44902.4477 37750.9112,44902.4477 C38345.6772,44902.4477 38884.1125,44661.3991 39273.8364,44271.6915 C39663.5503,43881.9839 39904.5927,43343.5472 39904.5927,42748.8008 C39904.5927,42154.0544 39663.5403,41615.6077 39273.8364,41225.9201 C38884.1225,40836.2125 38345.6772,40595.154 37750.9112,40595.154 C37694.3907,40595.154 37645.0002,40596.654 37602.5198,40599.5639 C37548.5692,40603.2439 37499.1987,40608.2139 37454.3383,40614.3539 L37222.706,40646.0837 L32296.587,34526.0111 L32575.0997,34262.5427 C32954.1735,33903.9349 33313.0171,33519.1672 33649.2204,33110.6697 C33981.1737,32707.3222 34289.1668,32281.7448 34570.8596,31836.2875 L34780.3017,31505.0695 L39246.9761,33963.3545 L39190.1656,34259.8327 C39178.6654,34319.8723 39170.3254,34376.152 39165.3953,34428.2717 C39161.0053,34474.5814 39158.7353,34531.251 39158.7353,34598.6206 C39158.7353,35091.9876 39358.6972,35538.6349 39681.9705,35861.9029 C40005.2437,36185.1709 40451.8881,36385.1197 40945.263,36385.1197 C41438.6379,36385.1197 41885.2924,36185.1709 42208.5656,35861.9029 C42531.8388,35538.6349 42731.7908,35091.9876 42731.7908,34598.6206 C42731.7908,34105.2536 42531.8388,33658.6164 42208.5656,33335.3483 C41885.2924,33012.0803 41438.6379,32812.1215 40945.263,32812.1215 C40741.001,32812.1215 40546.0591,32845.6313 40365.5573,32907.3709 C40177.4654,32971.7006 40003.5937,33066.48 39849.8721,33185.7592 L39634.64,33352.7582 L35128.6851,30872.8634 L35296.4268,30520.3555 C35524.1291,30041.7985 35722.5711,29546.4715 35889.3527,29036.7746 C36054.2444,28532.8577 36187.9057,28016.9108 36288.0667,27491.274 L36361.5274,27105.7564 L39767.6713,27549.1537 L39844.9021,27807.0221 C39916.7428,28046.9206 40064.3843,28253.6094 40259.7662,28398.9485 C40450.1281,28540.5676 40687.2605,28624.3871 40945.263,28624.3871 C41262.3462,28624.3871 41549.399,28495.8879 41757.1411,28288.1492 C41964.8932,28080.4104 42093.3845,27793.3622 42093.3845,27476.2841 C42093.3845,27159.2061 41964.8932,26872.1678 41757.1411,26664.4191 C41549.399,26456.6804 41262.3462,26328.1812 40945.263,26328.1812 C40782.9814,26328.1812 40629.0499,26361.4809 40489.9485,26421.5506 C40344.5071,26484.3502 40215.1158,26575.6796 40109.0547,26688.239 L39963.6633,26842.498 L39752.9312,26815.0582 Z M37330.3971,25662.9552 L39664.4103,25966.7834 C39813.1718,25840.2541 39980.4734,25735.4648 40161.4852,25657.2953 C40402.3176,25553.2859 40667.3603,25495.6362 40945.263,25495.6362 C41492.1585,25495.6362 41987.3334,25717.3449 42345.787,26075.7927 C42704.2305,26434.2305 42925.9427,26929.3875 42925.9427,27476.2841 C42925.9427,28023.1708 42704.2305,28518.3378 42345.787,28876.7856 C41987.3334,29235.2234 41492.1585,29456.932 40945.263,29456.932 C40504.2086,29456.932 40095.8746,29311.4529 39765.4313,29065.6344 C39500.5687,28868.6156 39286.6365,28607.3272 39146.8651,28305.0891 L37025.214,28028.9108 C36929.9931,28459.7881 36814.4419,28881.7455 36679.6406,29293.703 C36542.8592,29711.6805 36386.0577,30120.688 36210.3959,30519.5555 L39571.8994,32369.6042 C39736.421,32267.9149 39912.9628,32183.9354 40098.8746,32120.3458 C40365.6373,32029.0963 40650.4101,31979.5766 40945.263,31979.5766 C41668.4602,31979.5766 42323.2367,32272.7448 42797.2115,32746.7119 C43271.1862,33220.679 43564.3491,33875.435 43564.3491,34598.6206 C43564.3491,35321.8062 43271.1862,35976.5722 42797.2115,36450.5393 C42323.2367,36924.5064 41668.4602,37217.6646 40945.263,37217.6646 C40222.0658,37217.6646 39567.2993,36924.5064 39093.3246,36450.5393 C38619.3499,35976.5722 38326.177,35321.8062 38326.177,34598.6206 C38326.177,34541.071 38328.877,34477.9714 38334.187,34409.6418 L35058.8244,32607.0128 C34819.2221,32962.3706 34562.5295,33306.2585 34289.8968,33637.5265 C34016.5941,33969.6145 33726.0012,34289.6625 33419.3581,34596.5106 L37581.9796,39768.029 C37642.5202,39764.439 37698.9107,39762.6091 37750.9112,39762.6091 C38575.4894,39762.6091 39322.0469,40096.867 39862.4723,40637.2837 C40402.8876,41177.6904 40737.151,41924.2358 40737.151,42748.8008 C40737.151,43573.3658 40402.8776,44319.9112 39862.4723,44860.3279 C39322.0469,45400.7246 38575.4894,45734.9926 37750.9112,45734.9926 C36926.333,45734.9926 36179.7756,45400.7346 35639.3602,44860.3279 C35098.9348,44319.9112 34764.6715,43573.3658 34764.6715,42748.8008 C34764.6715,42445.9427 34811.102,42150.9045 34897.3128,41870.5962 C34954.5534,41684.4873 35029.2942,41506.3184 35119.5851,41338.0494 L31159.6856,36418.3595 C30524.1693,36825.777 29850.2426,37181.8248 29143.8856,37480.363 C28454.5487,37771.6912 27735.2016,38007.0998 26991.4942,38180.8287 L27367.9479,40829.7025 C27764.0018,41001.6515 28104.9352,41275.0398 28357.5578,41616.7777 C28657.5107,42022.5452 28834.8625,42522.8622 28834.8625,43062.8689 C28834.8625,43735.3648 28562.2398,44344.2411 28121.4854,44784.9884 C27680.731,45225.7457 27071.845,45498.364 26399.3383,45498.364 C25726.8316,45498.364 25117.9555,45225.7457 24677.1911,44784.9884 C24236.4367,44344.2311 23963.814,43735.3548 23963.814,43062.8689 C23963.814,42609.3317 24089.3853,42183.0243 24307.9374,41816.7665 C24482.0192,41524.9983 24715.4115,41272.7698 24991.3842,41076.661 L24627.2806,38514.6967 C24578.0901,38517.1467 24527.6896,38519.4367 24476.0591,38521.5566 C24274.0071,38529.8166 24091.5053,38534.0466 23929.6737,38534.0466 C23275.3672,38534.0466 22628.9207,38486.3969 21993.7744,38394.4374 C21476.9693,38319.5979 20969.2842,38215.0985 20472.5193,38082.8093 L18620.3508,42870.5101 C18816.2928,43100.7887 18978.1244,43361.6971 19097.8856,43645.3253 C19249.4671,44004.3431 19333.3079,44396.2807 19333.3079,44804.8082 C19333.3079,45629.3732 18999.0446,46375.9186 18458.6192,46916.3353 C17918.2039,47456.742 17171.6464,47791 16347.0682,47791 C15522.49,47791 14775.9326,47456.732 14235.5072,46916.3353 C13695.1018,46375.9186 13360.8285,45629.3732 13360.8285,44804.8082 C13360.8285,44013.1731 13669.8616,43292.9675 14174.0566,42758.0608 C14621.551,42283.3137 15223.357,41955.1857 15899.6638,41853.2963 L17763.8923,37034.4057 C17166.1264,36724.4976 16595.6007,36371.6598 16056.5353,35980.0722 C15515.7599,35587.2646 15004.7149,35154.0772 14527.6801,34684.8301 L12538.1603,36376.7997 C12546.7104,36457.8493 12551.1204,36535.5288 12551.1204,36609.3883 C12551.1204,37226.0846 12301.1079,37784.4711 11896.9039,38188.6587 C11492.7099,38592.8562 10934.3243,38842.8647 10317.6182,38842.8647 C9700.90207,38842.8647 9142.51651,38592.8562 8738.32249,38188.6587 C8334.10847,37784.4711 8084.10598,37226.0846 8084.10598,36609.3883 C8084.10598,35992.6921 8334.10847,35434.3155 8738.32249,35030.118 C9142.51651,34625.9304 9700.90207,34375.912 10317.6182,34375.912 C10492.67,34375.912 10664.3317,34396.6218 10830.1733,34435.7216 C10906.4341,34453.6915 10981.7348,34475.9314 11055.8256,34502.1812 L12979.2147,32866.4512 C12512.2401,32207.2852 12102.976,31503.5195 11758.9126,30762.6341 C11421.6392,30036.3685 11147.2565,29273.3232 10942.8544,28480.578 L8252.03765,28925.9153 C8099.62613,29428.3822 7802.14317,29867.9395 7408.27925,30195.7675 C6946.96466,30579.7452 6355.37877,30810.7138 5711.51237,30810.7138 C4978.17507,30810.7138 4314.22846,30513.4456 3833.60368,30032.8285 C3352.96889,29552.2115 3055.69593,28888.2755 3055.69593,28154.94 C3055.69593,27421.6245 3352.96889,26757.6785 3833.60368,26277.0615 C4314.22846,25796.4644 4978.17507,25499.1662 5711.51237,25499.1662 C6189.84713,25499.1662 6640.83161,25627.6754 7031.89551,25852.3541 C7350.86868,26035.6129 7627.67144,26281.9214 7844.7936,26573.6897 L10555.0306,26125.1324 C10547.4805,26023.553 10541.0704,25921.6036 10535.8004,25819.3343 C10523.1803,25574.2858 10516.7702,25341.4172 10516.7702,25121.3685 C10516.7702,24470.4325 10563.9307,23827.1164 10654.9916,23194.7903 C10728.8923,22681.6734 10832.0933,22177.3365 10962.8146,21683.5695 L5233.78761,19475.993 C5014.08542,19641.442 4769.24299,19777.8812 4505.24036,19879.2806 C4170.10702,20007.9998 3809.54344,20078.5593 3436.23972,20078.5593 C2611.66151,20078.5593 1865.10408,19744.3014 1324.67871,19203.8847 C784.263327,18663.478 450,17916.9326 450,17092.3676 C450,16267.8026 784.273327,15521.2572 1324.67871,14980.8405 C1865.10408,14440.4438 2611.66151,14106.1758 3436.23972,14106.1758 C4260.81793,14106.1758 5007.37536,14440.4338 5547.79074,14980.8405 C6026.1155,15459.1576 6342.88865,16098.9837 6409.37931,16811.4293 L12009.825,18969.4661 C12228.8472,18546.0387 12469.7096,18135.8212 12730.9022,17740.3736 C12989.8148,17348.386 13269.9876,16969.5583 13569.9106,16605.4406 L11525.1602,14671.1124 C11480.8898,14684.1523 11436.0993,14695.6422 11390.8389,14705.5222 C11253.6675,14735.492 11112.1161,14751.2819 10967.9447,14751.2819 C10421.0492,14751.2819 9925.87431,14529.5632 9567.42074,14171.1254 C9208.97717,13812.6776 8987.26497,13317.5207 8987.26497,12770.634 C8987.26497,12223.7473 9208.97717,11728.5804 9567.42074,11370.1326 C9925.87431,11011.6947 10421.0492,10789.9861 10967.9447,10789.9861 C11514.8501,10789.9861 12010.0151,11011.6947 12368.4586,11370.1326 C12726.9122,11728.5804 12948.6344,12223.7473 12948.6344,12770.634 C12948.6344,12925.4431 12930.3042,13077.4321 12895.6839,13224.4812 C12884.7438,13270.9609 12871.9936,13317.0907 12857.4935,13362.7704 L14852.3033,15249.8488 C15257.5674,14877.0811 15686.2316,14528.7033 16135.8761,14207.1052 C16583.8306,13886.7272 17052.2952,13593.239 17538.8701,13329.0306 L16024.705,9820.83202 C15416.589,9769.87233 14870.1235,9502.04397 14462.9395,9094.86646 C14008.9049,8640.83923 13728.0622,8013.60307 13728.0622,7320.8373 C13728.0622,6628.08153 14008.9149,6000.85537 14462.9395,5546.81814 C14916.994,5092.80091 15544.2202,4811.95263 16236.9971,4811.95263 C16929.774,4811.95263 17557.0103,5092.79091 18011.0448,5546.81814 C18465.0993,6000.85537 18745.9421,6628.08153 18745.9421,7320.8373 C18745.9421,7654.48526 18679.1714,7975.4733 18558.0802,8271.07149 C18470.3593,8485.19018 18354.0082,8684.35897 18213.8368,8863.76787 L19731.9519,12381.0864 C20154.0761,12242.1872 20586.8004,12123.418 21028.9548,12025.9285 C21472.2192,11928.1891 21918.9437,11852.4996 22367.7481,11800.0199 L22318.8977,5912.9559 C21899.5035,5673.76736 21543.9499,5336.23943 21283.8874,4931.9619 C20984.1444,4466.00474 20810.2426,3912.35813 20810.2426,3319.19175 C20810.2426,2494.62679 21144.516,1748.08135 21684.9213,1207.66466 C22225.3467,667.267957 22971.9042,333 23796.4824,333 C24621.0606,333 25367.618,667.267957 25908.0434,1207.66466 C26448.4488,1748.08135 26782.7221,2494.62679 26782.7221,3319.19175 C26782.7221,3925.14805 26601.0403,4490.1046 26288.9772,4962.66171 C26019.9445,5370.05922 25653.1908,5707.69716 25221.9165,5942.48572 L25270.327,11776.2501 C25887.6132,11837.7397 26494.7192,11941.6991 27088.6251,12085.1682 C27689.1911,12230.2373 28272.9169,12415.1962 28836.8125,12636.9748 L30601.4001,9108.01638 C30445.1385,8915.02756 30315.2472,8699.44888 30217.3063,8466.8203 C30082.9149,8147.64225 30008.6142,7799.77437 30008.6142,7437.71659 C30008.6142,6704.39107 30305.9071,6040.45512 30786.5119,5559.83806 C31267.1367,5079.221 31931.0933,4781.94281 32664.4306,4781.94281 C33397.7679,4781.94281 34061.7145,5079.221 34542.3393,5559.83806 C35022.9641,6040.45512 35320.247,6704.39107 35320.247,7437.71659 C35320.247,8171.0421 35022.9641,8834.98805 34542.3393,9315.60511 C34087.2748,9770.64233 33467.8586,10061.3106 32780.8218,10090.9304 L30972.7138,13706.8883 C31408.3181,13976.0766 31826.2623,14268.6248 32224.6362,14582.6229 C32624.5402,14897.821 33007.034,15236.4589 33370.1876,15596.6167 L35793.4618,13552.7192 C35788.1717,13493.4996 35785.4517,13436.9699 35785.4517,13383.4203 C35785.4517,12836.5336 36007.1739,12341.3666 36365.6175,11982.9188 C36724.071,11624.481 37219.2359,11402.7724 37766.1314,11402.7724 C38313.0268,11402.7724 38808.2018,11624.481 39166.6553,11982.9188 C39525.0989,12341.3666 39746.8111,12836.5336 39746.8111,13383.4203 C39746.8111,13930.3069 39525.0989,14425.4639 39166.6553,14783.9117 C38808.2018,15142.3495 38313.0268,15364.0682 37766.1314,15364.0682 C37669.0704,15364.0682 37566.7694,15355.4482 37460.3283,15338.8583 C37437.9681,15335.3683 37415.7979,15331.5383 37393.8277,15327.3784 L34911.203,17421.3156 C35213.306,17851.523 35491.5988,18301.7502 35743.9613,18769.9873 C35992.8737,19231.8245 36216.266,19712.6316 36412.1179,20210.4785 L41744.171,18755.2274 C41855.3821,18096.1815 42182.5853,17510.265 42650.59,17072.8677 C43184.2753,16574.0708 43900.6124,16268.7626 44687.7603,16268.7626 C45512.3385,16268.7626 46258.8959,16603.0306 46799.3213,17143.4273 C47339.7267,17683.844 47674,18430.3894 47674,19254.9544 C47674,20079.5193 47339.7367,20826.0648 46799.3213,21366.4715 C46258.8959,21906.8882 45512.3385,22241.1461 44687.7603,22241.1461 C44274.8362,22241.1461 43879.8122,22156.1566 43519.2686,22002.6376 C43224.9057,21877.2884 42954.783,21705.9594 42717.9007,21497.7207 L37175.4655,23010.3814 C37220.066,23292.6397 37256.0863,23579.7979 37283.2066,23871.5962 C37322.447,24293.8236 37342.5672,24710.871 37342.5672,25121.3685 C37342.5672,25249.6477 37339.4071,25404.8968 37333.1971,25586.3557 L37330.3971,25662.9552 Z M30681.0209,28657.3169 C30400.5481,28657.3169 30146.6356,28770.9762 29962.8937,28954.7151 C29779.1419,29138.464 29665.4808,29392.3724 29665.4808,29672.8307 C29665.4808,29953.299 29779.1319,30207.2074 29962.8937,30390.9563 C30146.6356,30574.7052 30400.5481,30688.3645 30681.0209,30688.3645 C30961.4837,30688.3645 31215.3962,30574.7152 31399.158,30390.9563 C31582.9099,30207.2074 31696.561,29953.299 31696.561,29672.8307 C31696.561,29392.3724 31582.8999,29138.464 31399.158,28954.7151 C31215.3962,28770.9662 30961.4837,28657.3169 30681.0209,28657.3169 Z M29374.2479,28366.0887 C29708.7112,28031.6407 30170.7458,27824.762 30681.0209,27824.762 C31191.306,27824.762 31653.3306,28031.6307 31987.7939,28366.0887 C32322.2472,28700.5367 32529.1293,29162.5538 32529.1293,29672.8307 C32529.1293,30183.1176 32322.2572,30645.1348 31987.7939,30979.5927 C31653.3306,31314.0407 31191.316,31520.9094 30681.0209,31520.9094 C30170.7358,31520.9094 29708.7012,31314.0307 29374.2479,30979.5927 C29039.7945,30645.1348 28832.9225,30183.1076 28832.9225,29672.8307 C28832.9225,29162.5638 29039.8045,28700.5467 29374.2479,28366.0887 Z M23853.0129,30984.5227 C23278.5372,30984.5227 22758.442,31217.3613 22382.0283,31593.769 C22005.6045,31970.1867 21772.7722,32490.2635 21772.7722,33064.74 C21772.7722,33639.2065 22005.6045,34159.2733 22382.0283,34535.691 C22758.452,34912.1187 23278.5372,35144.9373 23853.0129,35144.9373 C24427.4886,35144.9373 24947.5738,34912.1187 25323.9976,34535.691 C25700.4113,34159.2833 25933.2536,33639.2065 25933.2536,33064.74 C25933.2536,32490.2635 25700.4313,31970.1867 25323.9976,31593.769 C24947.5938,31217.3613 24427.4986,30984.5227 23853.0129,30984.5227 Z M21793.3924,31005.1426 C22320.5177,30478.0258 23048.7149,30151.9778 23853.0129,30151.9778 C24657.3209,30151.9778 25385.5182,30478.0258 25912.6434,31005.1426 C26439.7787,31532.2594 26765.8219,32260.4549 26765.8219,33064.74 C26765.8219,33869.0151 26439.7687,34597.2006 25912.6434,35124.3174 C25385.5282,35651.4542 24657.3109,35977.4822 23853.0129,35977.4822 C23048.7149,35977.4822 22320.5077,35651.4542 21793.3924,35124.3174 C21266.2572,34597.2106 20940.2139,33869.0151 20940.2139,33064.74 C20940.2139,32260.4549 21266.2572,31532.2594 21793.3924,31005.1426 Z M25063.965,23757.5669 C24630.9907,23757.5669 24239.0068,23933.0458 23955.3339,24216.7141 C23671.6611,24500.3823 23496.1794,24892.3599 23496.1794,25325.3273 C23496.1794,25758.2846 23671.6611,26150.2522 23955.3339,26433.9205 C24239.0068,26717.5888 24630.9907,26893.0677 25063.965,26893.0677 C25496.9293,26893.0677 25888.9032,26717.5888 26172.576,26433.9205 C26456.2488,26150.2522 26631.7306,25758.2846 26631.7306,25325.3273 C26631.7306,24892.3599 26456.2488,24500.3823 26172.576,24216.7141 C25888.9032,23933.0458 25496.9293,23757.5669 25063.965,23757.5669 Z M23366.6881,23628.0777 C23801.0824,23193.7003 24401.1684,22925.0119 25063.965,22925.0119 C25726.7516,22925.0119 26326.8275,23193.7003 26761.2219,23628.0777 C27195.6062,24062.465 27464.2989,24662.5413 27464.2989,25325.3273 C27464.2989,25988.1032 27195.6062,26588.1696 26761.2219,27022.5569 C26326.8275,27456.9343 25726.7516,27725.6226 25063.965,27725.6226 C24401.1684,27725.6226 23801.0824,27456.9343 23366.6881,27022.5569 C22932.3038,26588.1696 22663.6111,25988.1032 22663.6111,25325.3273 C22663.6111,24662.5413 22932.3038,24062.465 23366.6881,23628.0777 Z M31853.8225,21302.2319 C31481.2688,21302.2319 31143.9855,21453.2309 30899.8831,21697.3194 C30655.7906,21941.418 30504.7991,22278.6859 30504.7991,22651.2436 C30504.7991,23023.8013 30655.7906,23361.0693 30899.8831,23605.1678 C31143.9855,23849.2563 31481.2688,24000.2554 31853.8225,24000.2554 C32226.3863,24000.2554 32563.6696,23849.2563 32807.762,23605.1678 C33051.8645,23361.0693 33202.856,23023.8013 33202.856,22651.2436 C33202.856,22278.6859 33051.8645,21941.418 32807.762,21697.3194 C32563.6696,21453.2309 32226.3863,21302.2319 31853.8225,21302.2319 Z M30311.2472,21108.693 C30706.0411,20713.8955 31251.4466,20469.687 31853.8225,20469.687 C32456.2085,20469.687 33001.614,20713.8955 33396.4079,21108.693 C33791.2018,21503.4706 34035.4143,22048.8773 34035.4143,22651.2436 C34035.4143,23253.6099 33791.2018,23799.0166 33396.4079,24193.7942 C33001.614,24588.5918 32456.2085,24832.8003 31853.8225,24832.8003 C31251.4466,24832.8003 30706.0411,24588.5918 30311.2472,24193.7942 C29916.4433,23799.0166 29672.2308,23253.6099 29672.2308,22651.2436 C29672.2308,22048.8773 29916.4433,21503.4706 30311.2472,21108.693 Z M25863.3429,15213.3991 C25288.8672,15213.3991 24768.772,15446.2276 24392.3583,15822.6453 C24015.9245,16199.063 23783.0922,16719.1399 23783.0922,17293.6164 C23783.0922,17868.0828 24015.9245,18388.1597 24392.3583,18764.5774 C24768.762,19140.9851 25288.8672,19373.8236 25863.3429,19373.8236 C26437.8286,19373.8236 26957.9238,19140.9851 27334.3276,18764.5774 C27710.7613,18388.1597 27943.5936,17868.0828 27943.5936,17293.6164 C27943.5936,16719.1399 27710.7613,16199.063 27334.3276,15822.6453 C26957.9138,15446.2276 26437.8286,15213.3991 25863.3429,15213.3991 Z M23803.7124,15234.0189 C24330.8377,14706.8922 25059.0449,14380.8542 25863.3429,14380.8542 C26667.6509,14380.8542 27395.8582,14706.8922 27922.9734,15234.0189 C28450.1087,15761.1257 28776.1519,16489.3213 28776.1519,17293.6164 C28776.1519,18097.9014 28450.1087,18826.097 27922.9734,19353.2138 C27395.8482,19880.3306 26667.6509,20206.3786 25863.3429,20206.3786 C25059.0449,20206.3786 24330.8377,19880.3306 23803.7124,19353.2138 C23276.5772,18826.097 22950.5339,18097.9014 22950.5339,17293.6164 C22950.5339,16489.3213 23276.5772,15761.1257 23803.7124,15234.0189 Z M18757.3122,17897.7027 C18385.5885,17897.7027 18049.0752,18048.3517 17805.5327,18291.8903 C17561.9803,18535.4288 17411.3288,18871.9367 17411.3288,19243.6544 C17411.3288,19615.3722 17561.9803,19951.8901 17805.5327,20195.4286 C18049.0752,20438.9671 18385.5885,20589.6162 18757.3122,20589.6162 C19129.0259,20589.6162 19465.5493,20438.9671 19709.0917,20195.4286 C19952.6441,19951.8901 20103.2956,19615.3722 20103.2956,19243.6544 C20103.2956,18871.9367 19952.6441,18535.4288 19709.0917,18291.8903 C19465.5493,18048.3517 19129.0259,17897.7027 18757.3122,17897.7027 Z M17216.8869,17703.2639 C17611.1308,17309.0163 18155.7562,17065.1578 18757.3122,17065.1578 C19358.8482,17065.1578 19903.5036,17309.0163 20297.7375,17703.2639 C20691.9815,18097.4914 20935.8539,18642.1081 20935.8539,19243.6544 C20935.8539,19845.1808 20691.9815,20389.8274 20297.7375,20784.055 C19903.5036,21178.3026 19358.8482,21422.1611 18757.3122,21422.1611 C18155.7562,21422.1611 17611.1308,21178.3026 17216.8869,20784.055 C16822.6429,20389.8274 16578.7705,19845.1808 16578.7705,19243.6544 C16578.7705,18642.1081 16822.6429,18097.4914 17216.8869,17703.2639 Z M14503.7599,24187.1042 C15154.3163,23536.5682 16053.0153,23134.1907 17045.6452,23134.1907 C18038.265,23134.1907 18936.964,23536.5682 19587.5105,24187.1042 C20238.0569,24837.6403 20640.4409,25736.3348 20640.4409,26728.9387 C20640.4409,27721.5426 20238.0669,28620.2371 19587.5105,29270.7732 C18936.964,29921.3092 18038.265,30323.6867 17045.6452,30323.6867 C16053.0153,30323.6867 15154.3063,29921.3192 14503.7599,29270.7732 C13853.2034,28620.2471 13450.8294,27721.5426 13450.8294,26728.9387 C13450.8294,25736.3348 13853.2134,24837.6403 14503.7599,24187.1042 Z" id="Shape" fill="#485668" fill-rule="nonzero"></path>
    </g>
</svg>