<svg xmlns="http://www.w3.org/2000/svg" xmlns:xlink="http://www.w3.org/1999/xlink" xml:space="preserve" version="1.1" style="shape-rendering:geometricPrecision;text-rendering:geometricPrecision;image-rendering:optimizeQuality;" viewBox="0 0 50000 62500" x="0px" y="0px" fill-rule="evenodd" clip-rule="evenodd"><defs><style type="text/css">
   
    .fil0 {fill:black;fill-rule:nonzero}
   
  </style></defs><g><path class="fil0" d="M17983.71 24904.74c-762.81,0 -1453.38,309.15 -1953.22,809 -499.83,499.82 -809.01,1190.4 -809.01,1953.21 0,762.8 309.17,1453.38 809.01,1953.22 499.83,499.83 1190.41,809 1953.22,809 762.8,0 1453.38,-309.18 1953.21,-809 499.84,-499.85 809,-1190.42 809,-1953.22 0,-762.8 -309.18,-1453.39 -809,-1953.21 -499.84,-499.84 -1190.42,-809 -1953.21,-809zm22707.06 2848.33l-3298.96 -429.45 26.71 -388.56c10.95,-159.43 18.73,-305.14 23.24,-436.71 4.06,-118.57 6.12,-264.69 6.12,-438.98 0,-407.18 -17.93,-798.94 -52.87,-1174.98 -36.06,-388.06 -90.78,-775.14 -163.15,-1160.16l-70.59 -375.52 6740.58 -1839.71 170.33 177.12c199.81,207.77 440.91,375.61 710.11,490.24 257.3,109.56 542.23,170.21 843.26,170.21 594.75,0 1133.2,-241.05 1522.9,-630.76 389.7,-389.7 630.76,-928.14 630.76,-1522.89 0,-594.76 -241.05,-1133.19 -630.76,-1522.91 -389.71,-389.71 -928.15,-630.75 -1522.9,-630.75 -569.22,0 -1086.51,220.12 -1471.27,579.72 -387.09,361.79 -640.51,865.23 -678.05,1428l-19.64 294.31 -6621.37 1807.17 -130.23 -360.88c-209.09,-579.39 -461.98,-1142.68 -754.88,-1686.12 -293.14,-543.89 -626.94,-1065.77 -997.47,-1561.84l-234.17 -313.49 3414.97 -2880.38 219.24 70.31c57.24,18.36 114.86,32.24 172.35,41.19 51.53,8.03 111.14,12.21 178.96,12.21 317.08,0 604.13,-128.5 811.87,-336.25 207.75,-207.74 336.24,-494.78 336.24,-811.86 0,-317.08 -128.49,-604.13 -336.24,-811.87 -207.74,-207.75 -494.79,-336.24 -811.87,-336.24 -317.08,0 -604.12,128.49 -811.86,336.24 -207.75,207.74 -336.25,494.79 -336.25,811.87 0,48 2.02,89.91 5.92,125.91 4.1,37.83 11.16,79.21 20.94,123.74l53.46 243.22 -3385.92 2855.87 -269.76 -283.4c-412.56,-433.4 -857.69,-838.73 -1331.82,-1212.45 -472.28,-372.25 -969.85,-710.44 -1489.17,-1011l-337.36 -195.26 2394.31 -4788.35 272.24 16.5c31.13,1.88 51.06,3.01 57.36,3.21 9.9,0.31 7.49,-0.49 56.26,-0.49 503.51,0 959.34,-204.07 1289.26,-533.98 329.91,-329.91 533.97,-785.75 533.97,-1289.26 0,-503.51 -204.06,-959.35 -533.97,-1289.25 -329.91,-329.91 -785.75,-533.98 -1289.26,-533.98 -503.51,0 -959.35,204.07 -1289.26,533.98 -329.91,329.92 -533.98,785.74 -533.98,1289.25 0,253.62 49.99,492.42 140.4,707.14 94.84,225.25 234.17,427.82 407.11,596.83l216.81 211.92 -2374.63 4749.05 -358.33 -153.27c-636.17,-272.1 -1297.57,-493.05 -1979,-657.66 -665.57,-160.77 -1355.05,-268.6 -2063.93,-318.68l-382.19 -26.99 -59.22 -7136.01 254.35 -108.64c390.37,-166.74 721.81,-446.02 953.78,-797.31 223.66,-338.7 353.88,-745.89 353.88,-1184.93 0,-594.75 -241.04,-1133.19 -630.75,-1522.9 -389.72,-389.71 -928.15,-630.76 -1522.9,-630.76 -594.76,0 -1133.19,241.05 -1522.91,630.76 -389.7,389.71 -630.75,928.15 -630.75,1522.9 0,429.71 124.95,829.18 340.31,1163.97 223.35,347.23 542.98,626.02 920.72,798.25l240.09 109.47 59.46 7166.15 -382.07 33.33c-556.46,48.55 -1094.93,131.07 -1613.48,245.4 -532.61,117.44 -1054.69,269.57 -1563.67,454.03l-368.41 133.52 -2039.79 -4726.09 196.51 -199.65c152.3,-154.72 274.78,-338.46 358.13,-541.93 79.16,-193.24 122.81,-407.45 122.81,-634.78 0,-462.95 -187.62,-882.05 -490.96,-1185.39 -303.32,-303.32 -722.45,-490.96 -1185.4,-490.96 -462.95,0 -882.06,187.63 -1185.4,490.96 -303.33,303.34 -490.96,722.44 -490.96,1185.39 0,462.96 187.64,882.08 490.96,1185.4 303.34,303.34 722.45,490.97 1185.4,490.97 70.73,0 -23.33,2.19 25.77,1.33l309.05 -9.27 2038.19 4722.38 -349.72 176.81c-574.42,290.41 -1123.53,623.54 -1643.09,995.13 -522.25,373.53 -1015.2,786.57 -1474.5,1234.79l-284.23 277.39 -2998.78 -2836.88 137.41 -274.68c37.64,-75.25 67.67,-158.39 88.83,-248.33 19.74,-83.81 30.18,-172.56 30.18,-265.21 0,-317.08 -128.5,-604.13 -336.24,-811.87 -207.75,-207.75 -494.79,-336.24 -811.87,-336.24 -317.07,0 -604.13,128.49 -811.87,336.24 -207.74,207.74 -336.24,494.79 -336.24,811.87 0,317.08 128.5,604.12 336.24,811.86 207.74,207.75 494.8,336.25 811.87,336.25 85.85,0 168.56,-9.06 247.26,-26.26 82.08,-17.92 159.84,-44.08 232.32,-77.46l254.08 -117.02 3012.68 2850.04 -262.12 299.88c-370.43,423.82 -714.26,875.16 -1028.57,1351.03 -310.65,470.32 -590.51,962.62 -836.73,1473.96l-165.82 344.38 -6833.37 -2633.16 3.86 -291.74 -1.56 0c0,-594.76 -241.06,-1133.2 -630.77,-1522.91 -389.69,-389.69 -928.14,-630.75 -1522.89,-630.75 -594.76,0 -1133.19,241.05 -1522.91,630.75 -389.7,389.72 -630.75,928.15 -630.75,1522.91 0,594.75 241.06,1133.2 630.75,1522.89 389.71,389.71 928.15,630.77 1522.91,630.77 275.88,0 536.35,-49.84 773.03,-140.76 246.17,-94.54 472.56,-235.46 669.12,-412.67l188.71 -170.13 6903.97 2660.37 -108.35 366.47c-168.72,570.68 -298.12,1159.26 -385.01,1762.6 -84.63,587.66 -128.46,1191.76 -128.46,1809.51 0,233.98 5.32,452.46 15.78,655.7 11.27,218.84 28.18,436.41 50.56,652.51l40.19 388.08 -4024.43 666.07 -144.07 -246.68c-162.08,-277.54 -393.09,-507.76 -668.45,-665.97 -265.01,-152.26 -574.68,-239.35 -907.34,-239.35 -503.52,0 -959.34,204.06 -1289.26,533.97 -329.91,329.91 -533.98,785.76 -533.98,1289.26 0,503.52 204.07,959.35 533.98,1289.26 329.91,329.91 785.74,533.98 1289.26,533.98 445.11,0 851.71,-157.68 1166.65,-419.82 321.37,-267.5 549.4,-643.64 627.89,-1072.14l52.6 -287.16 4014.79 -664.48 86.72 382.41c196.95,868.38 484.84,1704.46 853.19,2497.68 373.89,805.11 831.12,1564.7 1360.65,2267.74l235.8 313.03 -2918.9 2482.38 -245.76 -123.16c-92.77,-46.5 -194.46,-83.38 -303.66,-109.12 -102.68,-24.2 -211.1,-37.04 -323.91,-37.04 -386.9,0 -737.16,156.81 -990.65,410.3 -253.49,253.49 -410.29,603.74 -410.29,990.64 0,386.9 156.8,737.15 410.29,990.64 253.49,253.5 603.75,410.3 990.65,410.3 386.89,0 737.15,-156.8 990.64,-410.3 253.49,-253.49 410.29,-603.74 410.29,-990.64 0,-57.99 -2.63,-110.06 -7.71,-156.32 -6.04,-54.92 -14.32,-105.55 -24.66,-151.89l-54.5 -244.02 2949.06 -2508.04 270.49 281.87c517.61,539.37 1084.24,1033.61 1693.09,1475.88 604.35,439.01 1247.67,824.94 1923.21,1151.06l344.7 166.39 -2326.62 6014.23 -267.75 15.62c-565.81,32.99 -1073.32,285.19 -1438.93,673.07 -363.05,385.17 -585.57,905.03 -585.57,1477.62 0,594.75 241.04,1133.19 630.75,1522.9 389.71,389.71 928.15,630.76 1522.9,630.76 594.76,0 1133.2,-241.06 1522.9,-630.76 389.7,-389.7 630.76,-928.15 630.76,-1522.9 0,-299.78 -59.53,-582.64 -167.14,-837.52 -112.5,-266.48 -278.02,-506.23 -483.53,-706.31l-196.53 -191.36 2319.56 -5995.94 365.78 108.72c573.9,170.57 1165.61,301.4 1771.93,389.2 590.73,85.54 1197.95,129.86 1818.8,129.86 193.31,0 364.29,-3.14 513.85,-9.25 153.59,-6.28 323.4,-16.99 508.46,-31.89l388.85 -31.31 552 3884.14 -255.34 137.99c-255.35,138 -469.05,343.12 -617.34,591.65 -142.12,238.19 -223.79,518.55 -223.79,820.07 0,442.68 179.42,843.45 469.46,1133.5 290.05,290.05 690.81,469.45 1133.49,469.45 442.69,0 843.45,-179.4 1133.5,-469.45 290.05,-290.05 469.45,-690.81 469.45,-1133.5 0,-357.89 -115.72,-687.01 -311.44,-951.77 -202.52,-273.98 -488.8,-481.07 -820.02,-582.47l-254.05 -77.77 -557.26 -3921.2 385.09 -78.07c823.86,-167.03 1619.18,-415.12 2377.28,-735.53 770.03,-325.44 1503.05,-727.19 2189.84,-1195.9l316.91 -216.28 4813.06 5979.73 -173.4 254.65c-119.73,175.82 -214.01,369.67 -277.54,576.25 -60.84,197.83 -93.61,410.73 -93.61,634.29 0,594.75 241.05,1133.2 630.76,1522.9 389.7,389.7 928.14,630.76 1522.89,630.76 594.76,0 1133.19,-241.05 1522.91,-630.76 389.71,-389.71 630.75,-928.15 630.75,-1522.9 0,-594.75 -241.05,-1133.2 -630.75,-1522.89 -389.71,-389.71 -928.15,-630.77 -1522.91,-630.77 -56.52,0 -105.91,1.5 -148.39,4.41 -53.95,3.68 -103.32,8.65 -148.18,14.79l-231.63 31.73 -4926.07 -6120.11 278.51 -263.47c379.07,-358.61 737.91,-743.38 1074.11,-1151.88 331.95,-403.35 639.94,-828.93 921.63,-1274.39l209.44 -331.22 4466.63 2458.3 -56.81 296.48c-11.5,60.04 -19.84,116.32 -24.77,168.44 -4.39,46.31 -6.66,102.98 -6.66,170.35 0,493.37 199.96,940.02 523.23,1263.29 323.27,323.27 769.91,523.22 1263.28,523.22 493.37,0 940.02,-199.95 1263.29,-523.22 323.27,-323.27 523.22,-769.92 523.22,-1263.29 0,-493.37 -199.95,-940.01 -523.22,-1263.28 -323.27,-323.27 -769.92,-523.23 -1263.29,-523.23 -204.26,0 -399.2,33.51 -579.7,95.25 -188.09,64.33 -361.96,159.11 -515.68,278.39l-215.23 167 -4505.91 -2479.91 167.74 -352.51c227.7,-478.56 426.14,-973.89 592.92,-1483.59 164.89,-503.92 298.55,-1019.87 398.71,-1545.51l73.46 -385.52 3406.11 443.4 77.23 257.87c71.84,239.9 219.48,446.59 414.86,591.93 190.36,141.62 427.49,225.44 685.49,225.44 317.08,0 604.13,-128.5 811.87,-336.24 207.75,-207.74 336.24,-494.79 336.24,-811.87 0,-317.08 -128.49,-604.12 -336.24,-811.87 -207.74,-207.74 -494.79,-336.24 -811.87,-336.24 -162.28,0 -316.21,33.3 -455.31,93.37 -145.44,62.8 -274.83,154.13 -380.89,266.69l-145.39 154.26 -210.73 -27.44zm-2422.51 -1152.11l2333.99 303.83c148.76,-126.53 316.06,-231.32 497.07,-309.49 240.83,-104.01 505.87,-161.66 783.77,-161.66 546.89,0 1042.06,221.71 1400.51,580.16 358.44,358.44 580.15,853.6 580.15,1400.5 0,546.89 -221.71,1042.06 -580.15,1400.51 -358.45,358.44 -853.62,580.15 -1400.51,580.15 -441.05,0 -849.38,-145.48 -1179.82,-391.3 -264.86,-197.02 -478.79,-458.31 -618.56,-760.55l-2121.63 -276.18c-95.22,430.88 -210.77,852.84 -345.57,1264.8 -136.78,417.98 -293.58,826.99 -469.24,1225.86l3361.47 1850.06c164.52,-101.69 341.06,-185.67 526.97,-249.26 266.76,-91.25 551.53,-140.77 846.38,-140.77 723.19,0 1377.96,293.17 1851.93,767.14 473.97,473.97 767.13,1128.73 767.13,1851.92 0,723.19 -293.16,1377.96 -767.13,1851.93 -473.97,473.97 -1128.74,767.13 -1851.93,767.13 -723.19,0 -1377.95,-293.16 -1851.92,-767.13 -473.97,-473.97 -767.14,-1128.74 -767.14,-1851.93 0,-57.55 2.7,-120.65 8.01,-188.98l-3275.33 -1802.64c-239.6,355.36 -496.29,699.25 -768.92,1030.52 -273.3,332.09 -563.89,652.14 -870.53,958.99l4162.58 5171.55c60.54,-3.59 116.93,-5.42 168.93,-5.42 824.57,0 1571.12,334.26 2111.54,874.68 540.41,540.41 874.67,1286.96 874.67,2111.53 0,824.57 -334.27,1571.12 -874.67,2111.54 -540.42,540.4 -1286.97,874.67 -2111.54,874.67 -824.57,0 -1571.12,-334.26 -2111.53,-874.67 -540.42,-540.42 -874.68,-1286.97 -874.68,-2111.54 0,-302.86 46.43,-597.9 132.64,-878.21 57.24,-186.11 131.98,-364.28 222.27,-532.55l-3959.86 -4919.72c-635.51,407.42 -1309.43,763.47 -2015.78,1062.01 -689.33,291.33 -1408.67,526.74 -2152.37,700.47l376.45 2648.89c396.05,171.95 736.98,445.34 989.6,787.08 299.95,405.77 477.3,906.09 477.3,1446.1 0,672.5 -272.62,1281.38 -713.37,1722.13 -440.75,440.76 -1049.63,713.38 -1722.13,713.38 -672.5,0 -1281.37,-272.62 -1722.13,-713.38 -440.75,-440.76 -713.37,-1049.64 -713.37,-1722.13 0,-453.54 125.57,-879.85 344.12,-1246.11 174.08,-291.77 407.47,-544 683.44,-740.11l-364.1 -2561.98c-49.19,2.45 -99.59,4.74 -151.22,6.86 -202.05,8.26 -384.55,12.49 -546.38,12.49 -654.3,0 -1300.74,-47.65 -1935.88,-139.61 -516.8,-74.84 -1024.48,-179.34 -1521.24,-311.63l-1852.15 4787.73c195.94,230.28 357.77,491.19 477.53,774.82 151.58,359.02 235.42,750.96 235.42,1159.49 0,824.57 -334.26,1571.12 -874.68,2111.54 -540.41,540.41 -1286.96,874.67 -2111.53,874.67 -824.57,0 -1571.12,-334.27 -2111.54,-874.67 -540.4,-540.42 -874.67,-1286.97 -874.67,-2111.54 0,-791.64 309.03,-1511.85 813.22,-2046.76 447.49,-474.75 1049.29,-802.88 1725.59,-904.77l1864.21 -4818.92c-597.76,-309.91 -1168.28,-662.75 -1707.34,-1054.34 -540.77,-392.81 -1051.81,-826 -1528.84,-1295.25l-1989.5 1691.98c8.55,81.05 12.96,158.73 12.96,232.59 0,616.7 -250.01,1175.09 -654.21,1579.28 -404.19,404.2 -962.57,654.21 -1579.27,654.21 -616.71,0 -1175.09,-250.01 -1579.28,-654.21 -404.21,-404.19 -654.21,-962.58 -654.21,-1579.28 0,-616.7 250,-1175.08 654.21,-1579.28 404.19,-404.19 962.57,-654.21 1579.28,-654.21 175.05,0 346.71,20.71 512.55,59.81 76.26,17.97 151.56,40.21 225.65,66.46l1923.37 -1635.74c-466.97,-659.17 -876.23,-1362.94 -1220.29,-2103.83 -337.27,-726.27 -611.65,-1489.32 -816.05,-2282.07l-2690.79 445.34c-152.41,502.47 -449.89,942.03 -843.75,1269.86 -461.31,383.98 -1052.89,614.95 -1696.75,614.95 -733.33,0 -1397.27,-297.27 -1877.89,-777.89 -480.63,-480.62 -777.9,-1144.56 -777.9,-1877.9 0,-733.32 297.27,-1397.27 777.9,-1877.89 480.62,-480.6 1144.56,-777.9 1877.89,-777.9 478.33,0 929.31,128.51 1320.37,353.19 318.97,183.26 595.77,429.57 812.89,721.34l2710.21 -448.56c-7.55,-101.58 -13.96,-203.53 -19.23,-305.8 -12.62,-245.05 -19.03,-477.92 -19.03,-697.97 0,-650.94 47.16,-1294.26 138.22,-1926.59 73.9,-513.12 177.1,-1017.46 307.82,-1511.23l-5728.97 -2207.59c-219.7,165.45 -464.54,301.89 -728.54,403.29 -335.13,128.72 -695.69,199.28 -1068.99,199.28 -824.57,0 -1571.12,-334.26 -2111.54,-874.68 -540.41,-540.41 -874.67,-1286.96 -874.67,-2111.53 0,-824.57 334.27,-1571.12 874.67,-2111.54 540.42,-540.4 1286.97,-874.67 2111.54,-874.67 824.57,0 1571.12,334.26 2111.53,874.67 478.32,478.32 795.09,1118.15 861.58,1830.6l5600.39 2158.05c219.02,-423.43 459.88,-833.65 721.07,-1229.1 258.91,-391.99 539.08,-770.82 839,-1134.94l-2044.73 -1934.34c-44.27,13.04 -89.06,24.53 -134.32,34.41 -137.17,29.97 -278.72,45.76 -422.89,45.76 -546.89,0 -1042.06,-221.72 -1400.51,-580.16 -358.44,-358.45 -580.15,-853.61 -580.15,-1400.5 0,-546.89 221.71,-1042.06 580.15,-1400.51 358.45,-358.44 853.62,-580.15 1400.51,-580.15 546.9,0 1042.06,221.71 1400.5,580.15 358.45,358.45 580.17,853.62 580.17,1400.51 0,154.81 -18.33,306.8 -52.95,453.85 -10.94,46.48 -23.69,92.61 -38.19,138.29l1994.79 1887.09c405.26,-372.77 833.92,-721.15 1283.56,-1042.75 447.95,-320.38 916.41,-613.87 1402.98,-878.08l-1514.15 -3508.22c-608.11,-50.96 -1154.57,-318.79 -1561.75,-725.97 -454.03,-454.03 -734.87,-1081.27 -734.87,-1774.04 0,-692.76 280.85,-1319.99 734.87,-1774.03 454.05,-454.02 1081.27,-734.87 1774.04,-734.87 692.77,0 1320,280.84 1774.03,734.87 454.05,454.04 734.89,1081.27 734.89,1774.03 0,333.65 -66.77,654.64 -187.86,950.24 -87.72,214.12 -204.07,413.29 -344.24,592.7l1518.1 3517.34c422.12,-138.9 854.84,-257.67 1296.99,-355.16 443.26,-97.74 889.98,-173.43 1338.78,-225.91l-48.85 -5887.1c-419.39,-239.19 -774.94,-576.72 -1035,-981 -299.74,-465.96 -473.64,-1019.61 -473.64,-1612.78 0,-824.57 334.27,-1571.12 874.67,-2111.54 540.42,-540.4 1286.97,-874.67 2111.54,-874.67 824.57,0 1571.12,334.27 2111.54,874.67 540.4,540.42 874.67,1286.97 874.67,2111.54 0,605.96 -181.68,1170.92 -493.74,1643.48 -269.03,407.4 -635.78,745.04 -1067.05,979.83l48.41 5833.8c617.28,61.49 1224.38,165.45 1818.28,308.92 600.56,145.07 1184.28,330.03 1748.17,551.81l1764.57 -3528.98c-156.26,-192.99 -286.15,-408.57 -384.09,-641.2 -134.39,-319.18 -208.69,-667.05 -208.69,-1029.11 0,-733.33 297.29,-1397.27 777.89,-1877.89 480.62,-480.62 1144.57,-777.9 1877.9,-777.9 733.33,0 1397.27,297.28 1877.89,777.9 480.62,480.62 777.9,1144.56 777.9,1877.89 0,733.33 -297.28,1397.28 -777.9,1877.9 -455.06,455.04 -1074.47,745.71 -1761.5,775.33l-1808.09 3615.98c435.6,269.19 853.54,561.74 1251.91,875.74 399.9,315.2 782.39,653.84 1145.54,1014l2423.25 -2043.91c-5.29,-59.22 -8.01,-115.75 -8.01,-169.3 0,-546.89 221.72,-1042.06 580.16,-1400.51 358.45,-358.44 853.61,-580.15 1400.5,-580.15 546.89,0 1042.06,221.71 1400.51,580.15 358.44,358.45 580.15,853.62 580.15,1400.51 0,546.89 -221.71,1042.05 -580.15,1400.5 -358.45,358.44 -853.62,580.16 -1400.51,580.16 -97.06,0 -199.36,-8.62 -305.8,-25.21 -22.36,-3.49 -44.53,-7.32 -66.5,-11.48l-2482.6 2093.95c302.1,430.21 580.39,880.44 832.75,1348.68 248.91,461.84 472.3,942.65 668.15,1440.5l5332 -1455.26c111.21,-659.05 438.41,-1244.97 906.41,-1682.37 533.68,-498.8 1250.01,-804.11 2037.15,-804.11 824.57,0 1571.12,334.27 2111.54,874.67 540.4,540.42 874.67,1286.97 874.67,2111.54 0,824.57 -334.26,1571.12 -874.67,2111.53 -540.42,540.42 -1286.97,874.68 -2111.54,874.68 -412.92,0 -807.94,-84.99 -1168.48,-238.51 -294.36,-125.35 -564.48,-296.68 -801.36,-504.92l-5542.38 1512.67c44.6,282.26 80.62,569.42 107.74,861.22 39.24,422.23 59.36,839.28 59.36,1249.78 0,128.28 -3.16,283.53 -9.37,464.99l-2.8 76.6zm-6649.31 2994.38c-280.47,0 -534.38,113.66 -718.12,297.4 -183.75,183.75 -297.41,437.66 -297.41,718.12 0,280.47 113.65,534.38 297.41,718.13 183.74,183.75 437.65,297.41 718.12,297.41 280.46,0 534.37,-113.65 718.13,-297.41 183.75,-183.75 297.4,-437.66 297.4,-718.13 0,-280.46 -113.66,-534.37 -297.4,-718.12 -183.76,-183.75 -437.67,-297.4 -718.13,-297.4zm-1306.76 -291.23c334.46,-334.45 796.49,-541.33 1306.76,-541.33 510.28,0 972.3,206.87 1306.76,541.33 334.45,334.45 541.33,796.47 541.33,1306.75 0,510.29 -206.87,972.31 -541.33,1306.77 -334.46,334.45 -796.47,541.32 -1306.76,541.32 -510.28,0 -972.31,-206.88 -1306.76,-541.32 -334.45,-334.46 -541.32,-796.49 -541.32,-1306.77 0,-510.27 206.88,-972.29 541.32,-1306.75zm-5521.18 2618.45c-574.47,0 -1094.56,232.84 -1470.97,609.25 -376.42,376.42 -609.25,896.5 -609.25,1470.98 0,574.47 232.83,1094.54 609.25,1470.96 376.42,376.43 896.5,609.25 1470.97,609.25 574.47,0 1094.55,-232.82 1470.97,-609.25 376.41,-376.41 609.25,-896.49 609.25,-1470.96 0,-574.48 -232.82,-1094.56 -609.25,-1470.98 -376.4,-376.41 -896.49,-609.25 -1470.97,-609.25zm-2059.6 20.62c527.12,-527.12 1255.31,-853.17 2059.6,-853.17 804.3,0 1532.49,326.05 2059.61,853.17 527.13,527.12 853.17,1255.32 853.17,2059.61 0,804.28 -326.05,1532.47 -853.17,2059.59 -527.11,527.14 -1255.32,853.17 -2059.61,853.17 -804.29,0 -1532.49,-326.03 -2059.6,-853.17 -527.13,-527.11 -853.17,-1255.31 -853.17,-2059.59 0,-804.29 326.04,-1532.49 853.17,-2059.61zm3270.54 -7247.62c-432.97,0 -824.95,175.48 -1108.62,459.15 -283.67,283.67 -459.15,675.65 -459.15,1108.62 0,432.96 175.48,824.93 459.15,1108.6 283.67,283.67 675.65,459.15 1108.62,459.15 432.96,0 824.93,-175.48 1108.6,-459.15 283.67,-283.67 459.15,-675.64 459.15,-1108.6 0,-432.97 -175.48,-824.95 -459.15,-1108.62 -283.67,-283.67 -675.64,-459.15 -1108.6,-459.15zm-1697.26 -129.49c434.39,-434.38 1034.47,-703.07 1697.26,-703.07 662.78,0 1262.85,268.69 1697.24,703.07 434.38,434.39 703.07,1034.47 703.07,1697.26 0,662.78 -268.69,1262.85 -703.07,1697.24 -434.39,434.38 -1034.46,703.07 -1697.24,703.07 -662.79,0 -1262.87,-268.69 -1697.26,-703.07 -434.38,-434.39 -703.07,-1034.46 -703.07,-1697.24 0,-662.79 268.69,-1262.87 703.07,-1697.26zm8487.05 -2325.86c-372.55,0 -709.83,151 -953.93,395.09 -244.09,244.1 -395.08,581.37 -395.08,953.93 0,372.56 150.99,709.83 395.08,953.93 244.1,244.09 581.38,395.09 953.93,395.09 372.56,0 709.84,-151 953.93,-395.09 244.1,-244.1 395.09,-581.37 395.09,-953.93 0,-372.56 -150.99,-709.83 -395.09,-953.93 -244.09,-244.09 -581.37,-395.09 -953.93,-395.09zm-1542.56 -193.54c394.79,-394.8 940.19,-639.01 1542.56,-639.01 602.38,0 1147.78,244.21 1542.57,639.01 394.79,394.78 639,940.19 639,1542.56 0,602.37 -244.21,1147.78 -639,1542.56 -394.79,394.8 -940.19,639.01 -1542.57,639.01 -602.37,0 -1147.77,-244.21 -1542.56,-639.01 -394.8,-394.78 -639.01,-940.19 -639.01,-1542.56 0,-602.37 244.21,-1147.78 639.01,-1542.56zm-4447.86 -5895.33c-574.47,0 -1094.56,232.83 -1470.97,609.25 -376.43,376.42 -609.26,896.5 -609.26,1470.98 0,574.47 232.83,1094.55 609.26,1470.97 376.4,376.41 896.5,609.25 1470.97,609.25 574.48,0 1094.57,-232.84 1470.97,-609.25 376.43,-376.42 609.26,-896.5 609.26,-1470.97 0,-574.48 -232.83,-1094.56 -609.26,-1470.98 -376.41,-376.42 -896.49,-609.25 -1470.97,-609.25zm-2059.61 20.62c527.12,-527.13 1255.32,-853.17 2059.61,-853.17 804.3,0 1532.5,326.04 2059.61,853.17 527.13,527.11 853.17,1255.31 853.17,2059.61 0,804.29 -326.04,1532.49 -853.17,2059.61 -527.12,527.12 -1255.31,853.17 -2059.61,853.17 -804.29,0 -1532.49,-326.05 -2059.61,-853.17 -527.13,-527.12 -853.17,-1255.32 -853.17,-2059.61 0,-804.3 326.04,-1532.5 853.17,-2059.61zm-5046.35 2663.7c-371.72,0 -708.23,150.65 -951.77,394.19 -243.55,243.54 -394.2,580.05 -394.2,951.77 0,371.72 150.65,708.24 394.2,951.78 243.54,243.54 580.05,394.19 951.77,394.19 371.71,0 708.23,-150.65 951.77,-394.19 243.55,-243.54 394.2,-580.06 394.2,-951.78 0,-371.72 -150.65,-708.23 -394.2,-951.77 -243.54,-243.54 -580.06,-394.19 -951.77,-394.19zm-1540.41 -194.44c394.24,-394.25 938.86,-638.11 1540.41,-638.11 601.53,0 1146.18,243.86 1540.41,638.11 394.24,394.23 638.11,938.85 638.11,1540.4 0,601.53 -243.87,1146.18 -638.11,1540.41 -394.23,394.25 -938.88,638.11 -1540.41,638.11 -601.55,0 -1146.17,-243.86 -1540.41,-638.11 -394.24,-394.23 -638.11,-938.88 -638.11,-1540.41 0,-601.55 243.87,-1146.17 638.11,-1540.4zm-2713.1 6483.88c650.55,-650.54 1549.24,-1052.92 2541.86,-1052.92 992.61,0 1891.3,402.38 2541.84,1052.92 650.54,650.54 1052.92,1549.24 1052.92,2541.85 0,992.61 -402.37,1891.31 -1052.92,2541.85 -650.54,650.54 -1549.23,1052.92 -2541.84,1052.92 -992.62,0 -1891.32,-402.37 -2541.86,-1052.92 -650.55,-650.53 -1052.92,-1549.24 -1052.92,-2541.85 0,-992.61 402.38,-1891.31 1052.92,-2541.85z"/></g><text x="0" y="50015" fill="#000000" font-size="5px" font-weight="bold" font-family="'Helvetica Neue', Helvetica, Arial-Unicode, Arial, Sans-serif">Created by Oleksandr Panasovskyi</text><text x="0" y="50020" fill="#000000" font-size="5px" font-weight="bold" font-family="'Helvetica Neue', Helvetica, Arial-Unicode, Arial, Sans-serif">from the Noun Project</text></svg>