<svg width="72" height="72" xmlns="http://www.w3.org/2000/svg"><g fill="none" fill-rule="nonzero"><circle stroke="#485668" stroke-width="2" fill="#FFF" cx="36" cy="36" r="35"/><path d="M27.68 35.026c-.905 0-1.724.366-2.316.96a3.265 3.265 0 00-.96 2.315c0 .905.367 1.724.96 2.316.592.593 1.411.96 2.316.96.904 0 1.723-.367 2.316-.96.593-.592.96-1.411.96-2.316 0-.904-.367-1.723-.96-2.316a3.265 3.265 0 00-2.316-.96zm26.927 3.377l-3.912-.509.032-.46c.012-.19.022-.362.027-.518.005-.141.007-.314.007-.521 0-.483-.02-.947-.062-1.393-.043-.46-.108-.92-.194-1.376l-.084-.445 7.994-2.182.202.21a2.546 2.546 0 001.842.783c.705 0 1.344-.286 1.806-.748.462-.462.748-1.1.748-1.806 0-.705-.286-1.343-.748-1.806a2.546 2.546 0 00-1.806-.748c-.675 0-1.289.262-1.745.688a2.546 2.546 0 00-.804 1.693l-.023.35-7.852 2.142-.155-.428a14.815 14.815 0 00-2.078-3.851l-.277-.372 4.05-3.416.26.084a1.35 1.35 0 00.416.063 1.357 1.357 0 001.361-1.361 1.357 1.357 0 00-1.361-1.362 1.357 1.357 0 00-1.362 1.362 1.402 1.402 0 00.032.296l.064.288-4.016 3.387-.32-.336a15.001 15.001 0 00-3.345-2.637l-.4-.232 2.84-5.678.322.02.068.004h.067c.597 0 1.138-.243 1.529-.634s.633-.932.633-1.529c0-.597-.242-1.138-.633-1.529a2.155 2.155 0 00-1.529-.633c-.597 0-1.138.242-1.529.633a2.155 2.155 0 00-.633 1.529 2.155 2.155 0 00.65 1.546l.256.252-2.816 5.631-.425-.182a14.81 14.81 0 00-4.794-1.157l-.453-.032-.07-8.462.301-.13a2.566 2.566 0 001.131-.945 2.54 2.54 0 00.42-1.405c0-.705-.286-1.344-.748-1.806a2.546 2.546 0 00-1.806-.748c-.705 0-1.344.286-1.806.748a2.546 2.546 0 00-.748 1.806c0 .51.148.983.404 1.38.265.412.644.743 1.092.947l.284.13.07 8.498-.452.04c-.66.057-1.299.155-1.914.29-.631.14-1.25.32-1.854.539l-.437.158-2.419-5.604.233-.237a1.98 1.98 0 00.57-1.395 1.982 1.982 0 00-1.988-1.988c-.548 0-1.045.222-1.405.582-.36.36-.582.856-.582 1.405 0 .55.222 1.046.582 1.406.36.36.857.582 1.406.582.084 0-.028.003.03.002l.367-.011 2.417 5.6-.415.21a14.927 14.927 0 00-3.697 2.644l-.337.329-3.556-3.364.163-.326a1.347 1.347 0 00.141-.609 1.357 1.357 0 00-1.361-1.361 1.357 1.357 0 00-1.362 1.361 1.357 1.357 0 001.362 1.361 1.372 1.372 0 00.568-.123l.302-.138 3.572 3.38-.31.355a14.977 14.977 0 00-2.213 3.35l-.196.408-8.104-3.122.005-.346h-.002c0-.705-.286-1.344-.748-1.806a2.546 2.546 0 00-1.806-.748c-.705 0-1.344.286-1.806.748a2.546 2.546 0 00-.748 1.806c0 .705.286 1.344.748 1.806.462.462 1.1.748 1.806.748.327 0 .636-.06.917-.167.292-.112.56-.28.793-.49l.224-.201 8.187 3.154-.128.435a14.822 14.822 0 00-.61 4.236 15.171 15.171 0 00.08 1.551l.047.46-4.772.79-.171-.292a2.152 2.152 0 00-1.869-1.074c-.597 0-1.137.242-1.529.633a2.155 2.155 0 00-.633 1.53c0 .596.242 1.137.633 1.528.392.391.932.633 1.53.633a2.154 2.154 0 002.127-1.769l.063-.34 4.76-.788.104.453a14.806 14.806 0 002.625 5.651l.28.371-3.462 2.944-.291-.146a1.645 1.645 0 00-.745-.173 1.656 1.656 0 00-1.661 1.661c0 .459.186.874.487 1.175.3.3.716.486 1.174.486a1.656 1.656 0 001.652-1.847 1.664 1.664 0 00-.029-.18l-.064-.289 3.497-2.974.32.334a15.006 15.006 0 004.289 3.115l.409.198-2.76 7.131-.317.019a2.545 2.545 0 00-1.706.798 2.546 2.546 0 00-.695 1.752c0 .706.286 1.344.748 1.806.463.462 1.101.748 1.806.748.706 0 1.344-.286 1.806-.748.462-.462.748-1.1.748-1.806a2.546 2.546 0 00-.771-1.83l-.233-.227 2.75-7.11.434.128a14.837 14.837 0 004.258.616c.23 0 .432-.004.61-.011.182-.007.383-.02.602-.038l.462-.037.654 4.606-.303.164a1.89 1.89 0 00-.997 1.674c0 .525.213 1 .557 1.344.344.344.819.557 1.344.557.525 0 1-.213 1.344-.557.344-.344.557-.82.557-1.344a1.906 1.906 0 00-1.342-1.82l-.301-.092-.661-4.65.456-.092a14.786 14.786 0 005.416-2.29l.376-.257 5.708 7.09-.206.303a2.542 2.542 0 00-.44 1.435c0 .706.286 1.344.748 1.806.462.462 1.1.748 1.806.748.705 0 1.344-.286 1.806-.748.462-.462.748-1.1.748-1.806 0-.705-.286-1.344-.748-1.806a2.546 2.546 0 00-2.158-.725l-.275.038-5.841-7.258.33-.312a15.012 15.012 0 002.367-2.877l.248-.393 5.297 2.915-.067.352a2.14 2.14 0 00-.03.2 2.112 2.112 0 00.613 1.7c.383.383.913.62 1.498.62s1.115-.237 1.498-.62c.383-.384.62-.913.62-1.499 0-.585-.237-1.114-.62-1.498a2.112 2.112 0 00-1.498-.62 2.12 2.12 0 00-1.3.443l-.254.198-5.344-2.94.2-.419a14.825 14.825 0 001.175-3.592l.087-.457 4.04.526.091.306a1.363 1.363 0 001.305.969 1.357 1.357 0 001.361-1.361 1.357 1.357 0 00-1.361-1.362 1.358 1.358 0 00-.992.427l-.172.183-.25-.033zm-2.873-1.366l2.768.36a2.346 2.346 0 013.868 1.79c0 .649-.263 1.236-.688 1.661a2.341 2.341 0 01-3.06.224 2.36 2.36 0 01-.734-.902l-2.516-.327a15.751 15.751 0 01-.966 2.953l3.986 2.194a3.091 3.091 0 011.629-.462c.857 0 1.634.347 2.196.91.562.561.91 1.338.91 2.195 0 .858-.348 1.634-.91 2.197a3.096 3.096 0 01-2.196.91 3.096 3.096 0 01-2.196-.91 3.096 3.096 0 01-.9-2.42l-3.885-2.138a15.995 15.995 0 01-1.944 2.359l4.937 6.133a3.53 3.53 0 012.704 1.03 3.53 3.53 0 011.037 2.504 3.53 3.53 0 01-1.037 2.504 3.53 3.53 0 01-2.504 1.037 3.53 3.53 0 01-2.504-1.037 3.53 3.53 0 01-.88-3.545 3.53 3.53 0 01.264-.632l-4.696-5.834a15.893 15.893 0 01-4.943 2.09l.446 3.142a2.894 2.894 0 011.74 2.648c0 .797-.323 1.52-.846 2.042a2.88 2.88 0 01-2.042.846 2.88 2.88 0 01-2.042-.846 2.88 2.88 0 01-.438-3.52c.206-.346.483-.645.81-.878l-.432-3.038a20.57 20.57 0 01-.827.023 16.015 16.015 0 01-4.1-.535l-2.196 5.678a3.547 3.547 0 01.846 2.293 3.53 3.53 0 01-1.038 2.504 3.53 3.53 0 01-2.504 1.037 3.53 3.53 0 01-2.504-1.037 3.53 3.53 0 01-1.037-2.504c0-.938.367-1.792.965-2.427a3.535 3.535 0 012.046-1.073l2.21-5.714a15.885 15.885 0 01-3.837-2.786l-2.36 2.006a2.64 2.64 0 01-.76 2.149 2.64 2.64 0 01-1.873.775 2.64 2.64 0 01-1.872-.775 2.64 2.64 0 01-.776-1.873c0-.731.296-1.394.776-1.873a2.64 2.64 0 012.748-.626l2.28-1.94a15.773 15.773 0 01-2.415-5.2l-3.19.528a3.152 3.152 0 01-5.24 1.312 3.14 3.14 0 01-.922-2.227c0-.87.352-1.657.922-2.227a3.14 3.14 0 013.793-.503c.378.217.707.51.964.855l3.214-.532a16.004 16.004 0 01.483-5.267L13.673 29.7a3.554 3.554 0 01-2.132.715 3.53 3.53 0 01-2.504-1.037A3.53 3.53 0 018 26.874a3.53 3.53 0 011.037-2.504 3.53 3.53 0 012.504-1.037 3.53 3.53 0 012.504 1.037 3.53 3.53 0 011.022 2.17l6.641 2.56a15.896 15.896 0 011.85-2.804l-2.425-2.293a2.299 2.299 0 01-.66.095 2.341 2.341 0 01-1.661-.688 2.341 2.341 0 01-.688-1.661c0-.649.263-1.236.688-1.66a2.341 2.341 0 011.66-.689c.65 0 1.236.263 1.661.688a2.341 2.341 0 01.58 2.363l2.366 2.238a15.983 15.983 0 013.186-2.278l-1.796-4.16a2.966 2.966 0 01-1.852-.86 2.966 2.966 0 01-.871-2.105c0-.821.333-1.565.871-2.103a2.966 2.966 0 012.104-.872c.821 0 1.565.333 2.104.872a2.966 2.966 0 01.648 3.23c-.104.254-.242.49-.408.703l1.8 4.171a15.814 15.814 0 013.126-.689l-.058-6.981a3.555 3.555 0 01-1.227-1.163 3.524 3.524 0 01-.562-1.913 3.53 3.53 0 011.037-2.504A3.53 3.53 0 0135.685 7a3.53 3.53 0 012.504 1.037 3.53 3.53 0 011.037 2.504c0 .719-.215 1.389-.585 1.949a3.555 3.555 0 01-1.266 1.162l.058 6.918a15.886 15.886 0 014.23 1.02l2.092-4.184a3.152 3.152 0 01-.703-1.981c0-.87.352-1.657.922-2.227a3.14 3.14 0 012.227-.922c.87 0 1.657.352 2.227.922.57.57.922 1.357.922 2.227a3.14 3.14 0 01-.922 2.227 3.14 3.14 0 01-2.089.92l-2.144 4.287a15.905 15.905 0 012.843 2.241l2.874-2.424a2.341 2.341 0 01.678-1.862 2.341 2.341 0 011.66-.687c.65 0 1.237.263 1.662.688.425.425.688 1.012.688 1.66 0 .65-.263 1.236-.688 1.661a2.341 2.341 0 01-2.103.645l-2.944 2.483a15.954 15.954 0 011.78 3.307l6.323-1.725a3.536 3.536 0 011.075-1.995 3.527 3.527 0 012.416-.954 3.53 3.53 0 012.504 1.037A3.53 3.53 0 0164 29.438a3.53 3.53 0 01-1.037 2.504 3.53 3.53 0 01-3.89.755 3.541 3.541 0 01-.95-.6l-6.573 1.795a16.073 16.073 0 01.187 3.054l-.003.091zm-7.885 3.551a1.2 1.2 0 00-1.204 1.204 1.2 1.2 0 001.204 1.205 1.2 1.2 0 001.204-1.205 1.2 1.2 0 00-1.204-1.204zm-1.55-.345a2.185 2.185 0 011.55-.642c.605 0 1.153.245 1.55.642.396.396.642.944.642 1.55 0 .604-.246 1.152-.642 1.549a2.185 2.185 0 01-1.55.642 2.185 2.185 0 01-1.55-.642 2.185 2.185 0 01-.641-1.55c0-.605.245-1.153.641-1.55zm-6.547 3.105a2.46 2.46 0 00-1.744.722 2.46 2.46 0 00-.723 1.745c0 .68.276 1.297.723 1.744a2.46 2.46 0 001.744.722 2.46 2.46 0 001.745-.722 2.46 2.46 0 00.722-1.744 2.46 2.46 0 00-.722-1.745 2.46 2.46 0 00-1.745-.722zm-2.442.024a3.443 3.443 0 012.442-1.012c.954 0 1.817.387 2.443 1.012a3.443 3.443 0 011.011 2.443c0 .953-.386 1.817-1.011 2.442a3.443 3.443 0 01-2.443 1.012 3.443 3.443 0 01-2.442-1.012 3.443 3.443 0 01-1.012-2.442c0-.954.387-1.818 1.012-2.443zm3.878-8.594c-.513 0-.978.208-1.314.544a1.853 1.853 0 00-.545 1.315c0 .513.208.978.545 1.314.336.337.8.545 1.314.545s.978-.208 1.315-.545c.336-.336.544-.8.544-1.314s-.208-.978-.544-1.315a1.853 1.853 0 00-1.315-.544zm-2.013-.154a2.838 2.838 0 012.013-.834c.786 0 1.498.32 2.013.834.515.515.834 1.227.834 2.013 0 .786-.32 1.497-.834 2.012a2.838 2.838 0 01-2.013.834 2.838 2.838 0 01-2.013-.834 2.837 2.837 0 01-.833-2.012c0-.786.318-1.498.833-2.013zm10.065-2.758c-.442 0-.842.18-1.131.469a1.595 1.595 0 000 2.262 1.595 1.595 0 002.262 0c.29-.29.469-.69.469-1.131 0-.442-.18-.842-.469-1.131-.29-.29-.69-.469-1.131-.469zm-1.83-.23a2.579 2.579 0 011.83-.757c.714 0 1.36.29 1.83.758.467.468.757 1.115.757 1.829s-.29 1.36-.758 1.829a2.579 2.579 0 01-1.83.758c-.713 0-1.36-.29-1.828-.758a2.579 2.579 0 01-.758-1.83c0-.713.29-1.36.758-1.828zm-5.274-6.99a2.46 2.46 0 00-1.744.722 2.46 2.46 0 00-.723 1.745c0 .68.276 1.297.723 1.744a2.46 2.46 0 001.744.722 2.46 2.46 0 001.744-.722 2.46 2.46 0 00.723-1.744 2.46 2.46 0 00-.723-1.745 2.46 2.46 0 00-1.744-.722zm-2.442.024a3.443 3.443 0 012.442-1.012c.954 0 1.817.387 2.442 1.012a3.443 3.443 0 011.012 2.443c0 .953-.386 1.817-1.012 2.442a3.443 3.443 0 01-2.442 1.012 3.443 3.443 0 01-2.442-1.012 3.443 3.443 0 01-1.012-2.442c0-.954.387-1.818 1.012-2.443zM29.71 27.83a1.591 1.591 0 00-1.596 1.596 1.591 1.591 0 001.596 1.596 1.591 1.591 0 001.596-1.596c0-.44-.179-.84-.468-1.129a1.591 1.591 0 00-1.128-.467zm-1.827-.23a2.575 2.575 0 011.827-.757c.713 0 1.359.289 1.826.756.468.468.757 1.114.757 1.827 0 .713-.29 1.36-.757 1.827a2.575 2.575 0 01-1.826.756c-.714 0-1.36-.289-1.827-.756a2.575 2.575 0 01-.757-1.827c0-.713.29-1.36.757-1.827zm-3.218 7.688a4.25 4.25 0 013.015-1.248 4.25 4.25 0 013.014 1.248 4.25 4.25 0 011.249 3.014 4.25 4.25 0 01-1.249 3.015 4.25 4.25 0 01-3.014 1.248 4.25 4.25 0 01-3.015-1.248 4.25 4.25 0 01-1.248-3.015 4.25 4.25 0 011.248-3.014z" fill="#485668"/></g></svg>