<svg width="126" height="126" fill="none" xmlns="http://www.w3.org/2000/svg"><mask id="a" fill="#fff"><path d="M71.4 124.31a8.62 8.62 0 01-3.89-1.61c-1.47-.88-3-1.79-4.51-1.79-1.51 0-3 .91-4.51 1.79a8.62 8.62 0 01-3.89 1.61h-.35c-1.34-.19-2.55-1.51-3.72-2.77-1.17-1.26-2.32-2.51-3.74-2.93a4.395 4.395 0 00-1.3-.17A14.235 14.235 0 0042 119a14.265 14.265 0 01-3.22.58c-.46.01-.917-.079-1.34-.26-1.21-.55-2-2.15-2.76-3.69-.76-1.54-1.52-3.08-2.77-3.88-1.25-.8-3-.87-4.71-.93-1.71-.06-3.48-.11-4.48-1-1-.89-1.3-2.61-1.6-4.3-.3-1.69-.6-3.39-1.58-4.52-.98-1.13-2.64-1.67-4.25-2.2-1.61-.53-3.31-1.08-4-2.2s-.53-2.79-.33-4.56c.2-1.77.38-3.44-.25-4.8C10.08 85.88 8.63 85 7.24 84 5.85 83 4.35 82 4 80.74c-.35-1.26.28-2.8 1-4.44.72-1.64 1.34-3.21 1.13-4.71-.21-1.5-1.35-2.79-2.41-4.09-1.06-1.3-2.22-2.74-2.22-4.09 0-1.35 1.13-2.75 2.22-4.09 1.09-1.34 2.15-2.65 2.36-4.1.21-1.45-.47-3.13-1.08-4.7-.61-1.57-1.34-3.2-1-4.45.34-1.25 1.84-2.29 3.26-3.27 1.42-.98 2.83-1.94 3.44-3.29.61-1.35.43-3.11.25-4.8s-.38-3.45.33-4.56c.71-1.11 2.4-1.67 4-2.2 1.6-.53 3.27-1.07 4.24-2.2.97-1.13 1.29-2.85 1.58-4.52.29-1.67.61-3.44 1.61-4.3 1-.86 2.76-.93 4.47-1 1.71-.07 3.45-.11 4.71-.92 1.26-.81 2-2.37 2.77-3.89S36.23 8 37.45 7.45a3.16 3.16 0 011.33-.25 13.72 13.72 0 013.22.58 14.72 14.72 0 003.49.61 4.4 4.4 0 001.3-.17c1.42-.41 2.6-1.69 3.74-2.92 1.14-1.23 2.38-2.59 3.72-2.78h.35a8.62 8.62 0 013.89 1.61c1.47.89 3 1.8 4.51 1.8 1.51 0 3-.93 4.51-1.81A8.54 8.54 0 0171.4 2.5h.35c1.34.21 2.55 1.5 3.72 2.8 1.17 1.3 2.32 2.51 3.74 2.92a4.4 4.4 0 001.3.17A14.72 14.72 0 0084 7.78a13.72 13.72 0 013.22-.58 3.24 3.24 0 011.34.25c1.21.56 2 2.15 2.76 3.69.76 1.54 1.52 3.08 2.77 3.89s3 .86 4.71.92c1.71.06 3.48.11 4.48 1 1 .89 1.3 2.61 1.6 4.3.3 1.69.6 3.39 1.58 4.52.98 1.13 2.64 1.67 4.25 2.2 1.61.53 3.31 1.09 4 2.2s.53 2.79.33 4.56c-.2 1.77-.38 3.44.25 4.81.63 1.37 2.05 2.33 3.44 3.28 1.39.95 2.89 2 3.26 3.27.37 1.27-.28 2.81-1 4.45-.72 1.64-1.34 3.2-1.13 4.7.21 1.5 1.3 2.79 2.36 4.1 1.06 1.31 2.22 2.73 2.22 4.09 0 1.36-1.13 2.74-2.22 4.09-1.09 1.35-2.15 2.64-2.36 4.09-.21 1.45.47 3.13 1.13 4.71.66 1.58 1.34 3.19 1 4.44-.34 1.25-1.81 2.24-3.23 3.24s-2.83 1.94-3.44 3.29c-.61 1.35-.43 3.11-.25 4.8s.38 3.45-.33 4.56c-.71 1.11-2.4 1.67-4 2.2-1.6.53-3.27 1.07-4.24 2.2-.97 1.13-1.29 2.86-1.58 4.52-.29 1.66-.61 3.44-1.61 4.31-1 .87-2.76.92-4.47 1-1.71.08-3.45.12-4.71.93-1.26.81-2 2.37-2.77 3.88-.77 1.51-1.55 3.14-2.77 3.69a3.15 3.15 0 01-1.33.26A14.208 14.208 0 0184 119a14.274 14.274 0 00-3.49-.62 4.395 4.395 0 00-1.3.17c-1.42.42-2.6 1.69-3.74 2.93-1.14 1.24-2.38 2.58-3.72 2.77l-.35.06z"/></mask><path d="M71.4 124.31a8.62 8.62 0 01-3.89-1.61c-1.47-.88-3-1.79-4.51-1.79-1.51 0-3 .91-4.51 1.79a8.62 8.62 0 01-3.89 1.61h-.35c-1.34-.19-2.55-1.51-3.72-2.77-1.17-1.26-2.32-2.51-3.74-2.93a4.395 4.395 0 00-1.3-.17A14.235 14.235 0 0042 119a14.265 14.265 0 01-3.22.58c-.46.01-.917-.079-1.34-.26-1.21-.55-2-2.15-2.76-3.69-.76-1.54-1.52-3.08-2.77-3.88-1.25-.8-3-.87-4.71-.93-1.71-.06-3.48-.11-4.48-1-1-.89-1.3-2.61-1.6-4.3-.3-1.69-.6-3.39-1.58-4.52-.98-1.13-2.64-1.67-4.25-2.2-1.61-.53-3.31-1.08-4-2.2s-.53-2.79-.33-4.56c.2-1.77.38-3.44-.25-4.8C10.08 85.88 8.63 85 7.24 84 5.85 83 4.35 82 4 80.74c-.35-1.26.28-2.8 1-4.44.72-1.64 1.34-3.21 1.13-4.71-.21-1.5-1.35-2.79-2.41-4.09-1.06-1.3-2.22-2.74-2.22-4.09 0-1.35 1.13-2.75 2.22-4.09 1.09-1.34 2.15-2.65 2.36-4.1.21-1.45-.47-3.13-1.08-4.7-.61-1.57-1.34-3.2-1-4.45.34-1.25 1.84-2.29 3.26-3.27 1.42-.98 2.83-1.94 3.44-3.29.61-1.35.43-3.11.25-4.8s-.38-3.45.33-4.56c.71-1.11 2.4-1.67 4-2.2 1.6-.53 3.27-1.07 4.24-2.2.97-1.13 1.29-2.85 1.58-4.52.29-1.67.61-3.44 1.61-4.3 1-.86 2.76-.93 4.47-1 1.71-.07 3.45-.11 4.71-.92 1.26-.81 2-2.37 2.77-3.89S36.23 8 37.45 7.45a3.16 3.16 0 011.33-.25 13.72 13.72 0 013.22.58 14.72 14.72 0 003.49.61 4.4 4.4 0 001.3-.17c1.42-.41 2.6-1.69 3.74-2.92 1.14-1.23 2.38-2.59 3.72-2.78h.35a8.62 8.62 0 013.89 1.61c1.47.89 3 1.8 4.51 1.8 1.51 0 3-.93 4.51-1.81A8.54 8.54 0 0171.4 2.5h.35c1.34.21 2.55 1.5 3.72 2.8 1.17 1.3 2.32 2.51 3.74 2.92a4.4 4.4 0 001.3.17A14.72 14.72 0 0084 7.78a13.72 13.72 0 013.22-.58 3.24 3.24 0 011.34.25c1.21.56 2 2.15 2.76 3.69.76 1.54 1.52 3.08 2.77 3.89s3 .86 4.71.92c1.71.06 3.48.11 4.48 1 1 .89 1.3 2.61 1.6 4.3.3 1.69.6 3.39 1.58 4.52.98 1.13 2.64 1.67 4.25 2.2 1.61.53 3.31 1.09 4 2.2s.53 2.79.33 4.56c-.2 1.77-.38 3.44.25 4.81.63 1.37 2.05 2.33 3.44 3.28 1.39.95 2.89 2 3.26 3.27.37 1.27-.28 2.81-1 4.45-.72 1.64-1.34 3.2-1.13 4.7.21 1.5 1.3 2.79 2.36 4.1 1.06 1.31 2.22 2.73 2.22 4.09 0 1.36-1.13 2.74-2.22 4.09-1.09 1.35-2.15 2.64-2.36 4.09-.21 1.45.47 3.13 1.13 4.71.66 1.58 1.34 3.19 1 4.44-.34 1.25-1.81 2.24-3.23 3.24s-2.83 1.94-3.44 3.29c-.61 1.35-.43 3.11-.25 4.8s.38 3.45-.33 4.56c-.71 1.11-2.4 1.67-4 2.2-1.6.53-3.27 1.07-4.24 2.2-.97 1.13-1.29 2.86-1.58 4.52-.29 1.66-.61 3.44-1.61 4.31-1 .87-2.76.92-4.47 1-1.71.08-3.45.12-4.71.93-1.26.81-2 2.37-2.77 3.88-.77 1.51-1.55 3.14-2.77 3.69a3.15 3.15 0 01-1.33.26A14.208 14.208 0 0184 119a14.274 14.274 0 00-3.49-.62 4.395 4.395 0 00-1.3.17c-1.42.42-2.6 1.69-3.74 2.93-1.14 1.24-2.38 2.58-3.72 2.77l-.35.06z" stroke="#fff" stroke-width="4" mask="url(#a)"/><path d="M54.6 3a8.49 8.49 0 013.63 1.54c1.53.92 3.11 1.87 4.77 1.87 1.66 0 3.24-1 4.77-1.87A8.49 8.49 0 0171.4 3h.28c1.16.16 2.31 1.41 3.43 2.62 1.12 1.21 2.41 2.61 4 3.06a5 5 0 001.44.19 15 15 0 003.62-.63 13.26 13.26 0 013.09-.56 2.56 2.56 0 011.13.21c1.05.48 1.8 2 2.52 3.45.72 1.45 1.58 3.21 2.95 4.09 1.37.88 3.2.94 5 1 1.8.06 3.3.11 4.17.86.87.75 1.16 2.4 1.44 4s.62 3.53 1.69 4.76c1.07 1.23 2.8 1.8 4.47 2.34 1.67.54 3.15 1 3.77 2 .62 1 .43 2.63.26 4.24-.2 1.76-.4 3.57.28 5.06.68 1.49 2.17 2.5 3.61 3.49 1.44.99 2.75 1.89 3.07 3 .32 1.11-.33 2.61-1 4.1-.67 1.49-1.4 3.33-1.16 5s1.36 3 2.46 4.34c1.1 1.34 2.11 2.6 2.11 3.78 0 1.18-1.07 2.49-2.11 3.77-1.04 1.28-2.24 2.76-2.46 4.34-.22 1.58.47 3.33 1.16 5s1.27 3 1 4.11c-.27 1.11-1.72 2.07-3.07 3-1.35.93-2.93 2-3.61 3.49-.68 1.49-.48 3.31-.28 5.06.2 1.75.36 3.28-.26 4.24-.62.96-2.22 1.49-3.77 2-1.55.51-3.4 1.11-4.47 2.34-1.07 1.23-1.39 3-1.69 4.77-.3 1.77-.58 3.26-1.44 4-.86.74-2.55.8-4.17.85-1.62.05-3.59.12-5 1-1.41.88-2.17 2.5-2.95 4.08-.78 1.58-1.47 3-2.52 3.46-.357.15-.743.222-1.13.21a13.31 13.31 0 01-3.09-.57 14.986 14.986 0 00-3.62-.63 5.006 5.006 0 00-1.44.19c-1.55.45-2.78 1.78-4 3.07-1.22 1.29-2.27 2.45-3.43 2.61a1.31 1.31 0 01-.28 0 8.487 8.487 0 01-3.63-1.54c-1.53-.92-3.11-1.86-4.77-1.86-1.66 0-3.24.94-4.77 1.86a8.487 8.487 0 01-3.63 1.54 1.31 1.31 0 01-.28 0c-1.16-.16-2.31-1.41-3.43-2.61s-2.41-2.62-4-3.07a5.006 5.006 0 00-1.44-.19 14.986 14.986 0 00-3.62.63 13.31 13.31 0 01-3.09.57 2.704 2.704 0 01-1.13-.21c-1-.48-1.8-2-2.52-3.46s-1.58-3.21-3-4.08c-1.42-.87-3.2-1-5-1-1.8 0-3.3-.1-4.17-.85-.87-.75-1.16-2.41-1.44-4-.28-1.59-.48-3.52-1.56-4.79s-2.8-1.79-4.47-2.34c-1.67-.55-3.15-1-3.77-2-.62-1-.43-2.63-.26-4.24.17-1.61.4-3.57-.28-5.06-.68-1.49-2.14-2.5-3.61-3.49-1.47-.99-2.75-1.89-3.07-3-.32-1.11.33-2.62 1-4.11.67-1.49 1.4-3.33 1.16-5s-1.36-3-2.46-4.34C3.06 65.81 2 64.58 2 63.41c0-1.17 1.07-2.5 2.11-3.78 1.04-1.28 2.24-2.75 2.46-4.34.22-1.59-.47-3.33-1.16-5s-1.27-3-1-4.1c.27-1.1 1.72-2.08 3.07-3 1.35-.92 2.93-2 3.61-3.49.68-1.49.48-3.31.28-5.06-.2-1.75-.36-3.28.26-4.24.62-.96 2.22-1.49 3.77-2 1.55-.51 3.4-1.11 4.47-2.34 1.07-1.23 1.39-3 1.69-4.77.3-1.77.58-3.25 1.44-4s2.55-.8 4.17-.85c1.62-.05 3.59-.12 5-1 1.41-.88 2.17-2.51 3-4.09.83-1.58 1.47-3 2.52-3.45a2.56 2.56 0 011.13-.21 13.26 13.26 0 013.09.56 15 15 0 003.62.63 5 5 0 001.44-.19c1.55-.45 2.78-1.78 4-3.06 1.22-1.28 2.19-2.45 3.35-2.63h.28zm0-1h-.42c-2.86.44-4.81 5-7.53 5.74a4 4 0 01-1.16.15c-2.09 0-4.63-1.19-6.71-1.19a3.59 3.59 0 00-1.54.3c-2.61 1.19-3.21 6.06-5.6 7.61-2.39 1.55-7.09.07-9.24 1.94-2.15 1.87-1.4 6.72-3.23 8.87-1.83 2.15-6.78 2-8.33 4.46-1.55 2.46.58 6.82-.61 9.43-1.19 2.61-5.92 3.86-6.73 6.62-.81 2.76 2.5 6.36 2.08 9.22C5.16 58.01 1 60.51 1 63.41c0 2.9 4.19 5.47 4.58 8.26.39 2.79-2.88 6.49-2.08 9.21.8 2.72 5.55 4 6.73 6.62 1.18 2.62-.93 7 .61 9.43 1.54 2.43 6.46 2.3 8.32 4.46 1.86 2.16 1.08 7 3.24 8.87 2.16 1.87 6.83.4 9.24 1.95 2.41 1.55 3 6.41 5.6 7.61.486.207 1.011.31 1.54.3 2.08 0 4.61-1.2 6.71-1.2.392-.007.783.043 1.16.15 2.72.8 4.67 5.31 7.53 5.71.14.01.28.01.42 0 2.68 0 5.65-3.4 8.4-3.4s5.72 3.4 8.4 3.4c.14.01.28.01.42 0 2.86-.4 4.81-4.91 7.53-5.71a3.989 3.989 0 011.16-.15c2.09 0 4.63 1.2 6.71 1.2a3.753 3.753 0 001.54-.3c2.61-1.2 3.21-6.07 5.6-7.61 2.39-1.54 7.09-.08 9.24-1.95 2.15-1.87 1.36-6.71 3.23-8.87 1.87-2.16 6.78-2 8.33-4.46 1.55-2.46-.58-6.82.61-9.42 1.19-2.6 5.92-3.87 6.73-6.63.81-2.76-2.49-6.36-2.08-9.21.41-2.85 4.58-5.36 4.58-8.26 0-2.9-4.19-5.47-4.58-8.26-.39-2.79 2.88-6.5 2.08-9.22-.8-2.72-5.55-4-6.73-6.62-1.18-2.62.93-7-.61-9.43-1.54-2.43-6.46-2.3-8.32-4.45-1.86-2.15-1.08-7-3.24-8.88-2.16-1.88-6.83-.39-9.24-1.94-2.41-1.55-3-6.42-5.6-7.61a3.59 3.59 0 00-1.54-.3c-2.08 0-4.61 1.19-6.71 1.19a4 4 0 01-1.16-.15C76.63 7 74.68 2.44 71.82 2a3 3 0 00-.42 0c-2.68 0-5.65 3.41-8.4 3.41S57.28 2 54.6 2v0z" stroke="#fff" stroke-width="2"/><path fill-rule="evenodd" clip-rule="evenodd" d="M111 63.41c0 26.51-21.49 48-48 48s-48-21.49-48-48 21.49-48 48-48 48 21.49 48 48zm-3.84 0c0 24.389-19.771 44.16-44.16 44.16-24.389 0-44.16-19.771-44.16-44.16 0-24.389 19.771-44.16 44.16-44.16 24.389 0 44.16 19.771 44.16 44.16z" fill="#fff"/><path d="M63 23.41h-.06a1.5 1.5 0 100 3 1.5 1.5 0 000-3H63zm-9.58 1.2a1.547 1.547 0 00-.37 0 1.5 1.5 0 00.37 2.95 1.5 1.5 0 000-3v.05zm-9 3.55c-.253 0-.5.065-.72.19a1.5 1.5 0 00.73 2.82c.252 0 .5-.066.72-.19a1.5 1.5 0 00.59-2 1.48 1.48 0 00-1.31-.78l-.01-.04zm-7.81 5.68a1.51 1.51 0 00-1 .41 1.51 1.51 0 00-.06 2.12 1.53 1.53 0 001.1.47 1.51 1.51 0 001-.41 1.5 1.5 0 00-1-2.6l-.04.01zm-6.15 7.44a1.5 1.5 0 00-1.27.69v.05a1.49 1.49 0 001.27 2.3 1.48 1.48 0 001.26-.69v-.05a1.488 1.488 0 00-.46-2.07 1.479 1.479 0 00-.8-.23zM26.37 50A1.49 1.49 0 0025 51v.06a1.5 1.5 0 001 1.89c.152.048.31.071.47.07a1.5 1.5 0 001.42-1v-.05a1.501 1.501 0 00-1-1.89 1.529 1.529 0 00-.47-.07l-.05-.01zm-1.8 9.48a1.5 1.5 0 00-1.49 1.4V61a1.5 1.5 0 001.41 1.58h.09a1.5 1.5 0 001.5-1.41v-.05a1.51 1.51 0 00-1.4-1.59l-.11-.05zm.61 9.64a1.272 1.272 0 00-.28 0 1.49 1.49 0 00-1.2 1.74V71a1.51 1.51 0 001.47 1.22c.096.01.193.01.29 0a1.5 1.5 0 001.19-1.75v-.05a1.51 1.51 0 00-1.47-1.22v-.08zm3 9.18a1.42 1.42 0 00-.64.14 1.51 1.51 0 00-.72 2 1.48 1.48 0 001.35.85c.221.003.44-.045.64-.14a1.51 1.51 0 00.172-2.63 1.47 1.47 0 00-.802-.23v.01zm5.18 8.14a1.51 1.51 0 00-1 .35 1.48 1.48 0 00-.2 2.1v.06A1.535 1.535 0 0034.53 87a1.5 1.5 0 00-1.15-.54l-.02-.02zm7 6.61a1.519 1.519 0 00-1.22.62 1.5 1.5 0 00.33 2.09 1.5 1.5 0 10.88-2.72l.01.01zm8.45 4.66a1.48 1.48 0 00-1.39.94 1.5 1.5 0 00.84 2 1.499 1.499 0 101.1-2.79 1.488 1.488 0 00-.55-.1v-.05zm9.35 2.39a1.509 1.509 0 00-1.445.838 1.503 1.503 0 001.255 2.162h.25a1.49 1.49 0 001.087-.376 1.496 1.496 0 00.503-1.034 1.506 1.506 0 00-.843-1.441 1.494 1.494 0 00-.567-.149h-.24zm9.71 0h-.24a1.504 1.504 0 00-.907 2.624c.298.265.69.4 1.087.376h.25a1.501 1.501 0 10-.19-3zm9.34-2.41a1.349 1.349 0 00-.55.11h-.05a1.5 1.5 0 00.56 2.9 1.35 1.35 0 00.55-.11h.05a1.503 1.503 0 00.824-.795 1.492 1.492 0 00.016-1.145 1.51 1.51 0 00-1.4-1v.04zM85.68 93a1.43 1.43 0 00-.88.29 1.49 1.49 0 00-.33 2.09 1.48 1.48 0 001.21.62c.315 0 .622-.098.88-.28a1.49 1.49 0 00.32-2.09 1.48 1.48 0 00-1.2-.63zm7-6.62a1.499 1.499 0 00-1.332 2.198c.093.173.22.327.372.452a1.45 1.45 0 001 .35 1.54 1.54 0 001.16-.54 1.49 1.49 0 00-1.15-2.45l-.05-.01zm5.16-8.16a1.508 1.508 0 00-.64 2.87 1.51 1.51 0 002-.72v-.06a1.49 1.49 0 00-.72-2 1.46 1.46 0 00-.64-.15v.06zm3-9.18a1.51 1.51 0 00-1.48 1.22 1.52 1.52 0 001.2 1.76h.28a1.51 1.51 0 001.47-1.21v-.07a1.489 1.489 0 00-1.2-1.74c-.09-.01-.18-.01-.27 0v.04zm.58-9.64h-.09a1.521 1.521 0 00-1.41 1.6 1.501 1.501 0 001.49 1.4h.1a1.5 1.5 0 001.4-1.58v-.07a1.5 1.5 0 00-1.5-1.4l.01.05zm-1.81-9.48c-.16-.004-.32.024-.47.08a1.489 1.489 0 00-1 1.89V52a1.51 1.51 0 001.43 1 1.532 1.532 0 001.362-.807 1.518 1.518 0 00.108-1.153V51a1.499 1.499 0 00-1.42-1l-.01-.08zm-4.14-8.72a1.479 1.479 0 00-.8.23 1.51 1.51 0 00-.46 2.08 1.51 1.51 0 002.07.46 1.5 1.5 0 00.49-1.97 1.5 1.5 0 00-1.27-.69l-.03-.11zm-6.16-7.43a1.5 1.5 0 00-1 2.6 1.51 1.51 0 001 .41 1.53 1.53 0 001.1-.47 1.51 1.51 0 00-.07-2.12 1.51 1.51 0 00-1-.41l-.03-.01zm-7.82-5.66a1.5 1.5 0 00-.72 2.81c.222.117.469.178.72.18a1.5 1.5 0 00.73-2.81h-.05a1.57 1.57 0 00-.72-.18h.04zm-9-3.54a1.5 1.5 0 00-.37 2.95c.123.014.247.014.37 0A1.51 1.51 0 0074 26.47a1.5 1.5 0 00-1.09-1.82h-.05a1.612 1.612 0 00-.37 0v-.08zM44.023 80.714h2.157v2.694c-.585.2-1.23.3-1.931.3-.77 0-1.366-.223-1.788-.67-.419-.446-.628-1.083-.628-1.91 0-.807.23-1.435.69-1.884.46-.448 1.105-.673 1.934-.673.315 0 .611.03.89.089.28.06.523.134.73.226l-.427 1.06a2.643 2.643 0 00-1.186-.267c-.394 0-.7.128-.916.386-.214.255-.32.62-.32 1.097 0 .467.096.824.29 1.07.196.244.477.365.844.365.2 0 .385-.019.553-.058v-.782h-.892v-1.043zm7.424-2.071v3.008c0 .654-.185 1.16-.557 1.52-.369.358-.902.537-1.6.537-.68 0-1.205-.174-1.572-.523-.364-.348-.547-.85-.547-1.504v-3.038h1.357v2.933c0 .353.066.609.199.769.132.159.327.239.584.239.276 0 .475-.079.598-.236.126-.16.188-.42.188-.78v-2.925h1.35zm4.115 4.997l-.246-.937h-1.623l-.253.937h-1.483l1.63-5.018h1.801l1.651 5.018h-1.477zm-.526-2.044l-.215-.82c-.05-.183-.112-.418-.185-.708a12.3 12.3 0 01-.14-.622c-.02.116-.061.308-.123.574-.06.267-.192.792-.4 1.576h1.063zm3.897.226v1.818h-1.35v-4.997h1.637c1.358 0 2.037.492 2.037 1.476 0 .58-.283 1.027-.848 1.344l1.456 2.177h-1.531l-1.06-1.818h-.341zm0-1.016h.252c.472 0 .708-.208.708-.625 0-.344-.231-.516-.694-.516h-.266v1.141zm6.453 2.834l-.246-.937h-1.624l-.253.937H61.78l1.63-5.018h1.801l1.651 5.018h-1.476zm-.527-2.044l-.215-.82c-.05-.183-.112-.418-.184-.708-.071-.29-.118-.497-.14-.622-.021.116-.062.308-.124.574-.059.267-.192.792-.4 1.576h1.063zm7.305 2.044h-1.77l-1.826-3.52h-.03c.042.553.064.976.064 1.267v2.253h-1.196v-4.997h1.763l1.819 3.472h.02a20.125 20.125 0 01-.048-1.213v-2.26h1.204v4.998zm3.284 0h-1.35v-3.893h-1.22v-1.104h3.787v1.104h-1.217v3.893zm4.898 0H77.38v-4.997h2.967v1.083H78.73v.787h1.498v1.083h-1.498v.943h1.617v1.101zm3.842 0h-2.967v-4.997h2.967v1.083h-1.617v.787h1.497v1.083h-1.497v.943h1.617v1.101z" fill="#fff"/><path d="M35 74h58" stroke="#fff" stroke-miterlimit="10"/><path d="M42.806 59.499c0 .758-.23 1.402-.689 1.934-.46.53-1.104.896-1.934 1.095v.05c.98.122 1.721.42 2.225.897.503.47.755 1.106.755 1.909 0 1.168-.423 2.078-1.27 2.73-.847.648-2.056.972-3.627.972-1.317 0-2.485-.219-3.503-.656v-2.183c.47.238.988.432 1.552.581.564.15 1.123.224 1.677.224.846 0 1.472-.144 1.876-.431.404-.288.606-.75.606-1.387 0-.57-.233-.974-.698-1.212-.465-.237-1.206-.356-2.224-.356h-.922v-1.968h.938c.941 0 1.627-.121 2.059-.365.437-.249.656-.672.656-1.27 0-.919-.576-1.378-1.727-1.378-.398 0-.805.066-1.22.2-.41.132-.866.362-1.37.688l-1.187-1.768c1.107-.797 2.427-1.195 3.96-1.195 1.256 0 2.247.255 2.971.764.73.509 1.096 1.217 1.096 2.125zm10.119 3.353c0 2.12-.349 3.688-1.046 4.707-.692 1.018-1.76 1.527-3.204 1.527-1.4 0-2.457-.526-3.171-1.577-.708-1.052-1.063-2.604-1.063-4.657 0-2.141.346-3.719 1.038-4.731.692-1.019 1.757-1.528 3.196-1.528 1.4 0 2.457.532 3.17 1.594.72 1.063 1.08 2.618 1.08 4.665zm-5.935 0c0 1.489.127 2.557.382 3.204.26.642.694.963 1.303.963.598 0 1.03-.326 1.295-.98.265-.652.398-1.715.398-3.187 0-1.488-.135-2.556-.407-3.204-.265-.653-.694-.98-1.286-.98-.603 0-1.035.327-1.295.98-.26.647-.39 1.715-.39 3.204zm22.561-.116c0 1.998-.57 3.528-1.71 4.59-1.134 1.063-2.775 1.594-4.922 1.594h-3.437V56.784h3.81c1.982 0 3.52.523 4.616 1.57 1.095 1.045 1.643 2.506 1.643 4.382zm-2.673.066c0-2.606-1.15-3.91-3.453-3.91h-1.37v7.903h1.105c2.479 0 3.718-1.33 3.718-3.993zm12.618 6.118l-.88-2.889H74.19l-.88 2.889H70.54l4.283-12.186h3.146l4.3 12.186h-2.772zM78 63.873c-.813-2.617-1.272-4.098-1.377-4.44a14 14 0 01-.216-.814c-.183.708-.706 2.46-1.57 5.254h3.163zm9.58-2.092l2.531-4.997h2.773l-4.026 7.413v4.723h-2.557v-4.64l-4.026-7.496h2.79l2.515 4.997z" fill="#fff"/><path d="M35 51h58" stroke="#fff" stroke-miterlimit="10"/><path d="M41.89 47.64l-1.021-3.6h-.031c.048.614.072 1.09.072 1.43v2.17h-1.197v-4.997h1.798l1.043 3.548h.027l1.022-3.548h1.801v4.997h-1.24v-2.191c0-.114 0-.24.003-.38.005-.138.02-.479.048-1.021h-.03l-1.01 3.592h-1.284zm9.267-2.505c0 .84-.206 1.48-.619 1.917-.412.438-1.016.656-1.811.656-.784 0-1.386-.22-1.805-.66-.417-.44-.626-1.08-.626-1.92 0-.832.208-1.467.623-1.904.416-.44 1.021-.66 1.814-.66.796 0 1.398.218 1.809.653.41.435.615 1.075.615 1.918zm-3.439 0c0 .966.336 1.449 1.009 1.449.341 0 .594-.117.758-.352.167-.235.25-.6.25-1.097 0-.5-.084-.867-.253-1.104-.166-.24-.416-.36-.749-.36-.676 0-1.015.488-1.015 1.464zm9.099 2.505h-1.77l-1.826-3.52h-.03c.043.553.064.976.064 1.268v2.252H52.06v-4.997h1.764l1.818 3.472h.02a20.11 20.11 0 01-.047-1.213v-2.26h1.203v4.998zm4.047 0h-2.967v-4.997h2.967v1.083h-1.617v.787h1.497v1.083h-1.497v.943h1.617v1.101zm2.659-3.145l.861-1.852h1.463l-1.644 3.045v1.952h-1.36v-1.91l-1.644-3.087h1.47l.854 1.852zm4.683-1.852h1.743c.679 0 1.182.101 1.51.304.33.2.496.514.496.94 0 .28-.072.52-.215.718a.96.96 0 01-.568.383v.034c.31.082.535.218.674.41.139.191.208.44.208.745 0 .453-.17.811-.513 1.073-.339.26-.803.39-1.39.39h-1.945v-4.997zm1.35 1.917h.406c.194 0 .343-.04.448-.12.107-.079.16-.197.16-.355 0-.28-.211-.42-.635-.42h-.38v.895zm0 .988v1.05h.475c.421 0 .632-.178.632-.534a.457.457 0 00-.17-.383c-.112-.088-.275-.133-.49-.133h-.447zm6.432 2.092l-.246-.937H74.12l-.253.937h-1.484l1.63-5.018h1.802l1.65 5.018h-1.476zm-.526-2.044l-.215-.82c-.05-.183-.112-.418-.185-.708a12.3 12.3 0 01-.14-.622c-.02.116-.062.308-.123.574-.06.267-.193.792-.4 1.576h1.063zm4.771-1.917a.86.86 0 00-.752.396c-.18.262-.27.624-.27 1.087 0 .962.366 1.442 1.098 1.442.22 0 .435-.03.642-.092.208-.062.416-.136.626-.222v1.142a3.463 3.463 0 01-1.415.276c-.755 0-1.333-.218-1.737-.656-.4-.437-.601-1.07-.601-1.897 0-.517.097-.972.29-1.364.196-.392.477-.692.841-.902.367-.212.798-.318 1.292-.318.54 0 1.056.117 1.548.352l-.413 1.063a4.65 4.65 0 00-.554-.219 1.936 1.936 0 00-.595-.089zm6.59 3.961H85.3l-.988-1.91-.4.239v1.671h-1.357v-4.997h1.357v2.17c.069-.134.206-.347.414-.639l1.049-1.531h1.477l-1.576 2.239 1.548 2.758z" fill="#fff"/></svg>