<svg width="1920" height="960" fill="none" xmlns="http://www.w3.org/2000/svg"><path fill="#fff" d="M0 0h1920v960H0z"/><mask id="a" maskUnits="userSpaceOnUse" x="0" y="0" width="1920" height="960"><path fill="#fff" d="M0 0h1920v960H0z"/></mask><g mask="url(#a)"><path fill="#2DB5A3" d="M0 0h1920v960H0z"/><path d="M2031 585.5c0 240.899-364.78 218.853-527.5 426.5-218.68 279.07-178.03 609-509.5 609C421.281 1621-43 1157.39-43 585.5S421.281-450 994-450c572.72 0 1037 463.61 1037 1035.5z" fill="#304E6E"/><path d="M2074 164.5c0 240.899-364.78 218.853-527.5 426.5-218.68 279.066-178.03 609-509.5 609C464.281 1200 0 736.391 0 164.5 0-407.391 464.281-871 1037-871c572.72 0 1037 463.609 1037 1035.5z" fill="#2E4158"/><path d="M1533 82.5c0 256.729-409 306.5-542 662.5-97.611 261.28-342.021 321-638 321-552.837 0-822-430.939-822-983.5C-469-470.061-20.837-918 532-918c552.84 0 1001 447.939 1001 1000.5z" fill="#465568"/><path d="M461.189-309.348c50.237 187.486-238.788 303.886-266.28 589.9C174.733 490.464 7.885 581.918-208.321 639.85-612.155 748.057-893.098 486.032-1001.22 82.504c-108.13-403.528 131.592-818.371 535.426-926.578C-61.96-952.281 353.064-712.876 461.189-309.348z" fill="#283443"/></g></svg>